<?xml version="1.0" encoding="utf-8"?>
<!-- Generator: Adobe Illustrator 17.0.0, SVG Export Plug-In . SVG Version: 6.00 Build 0)  -->
<!DOCTYPE svg PUBLIC "-//W3C//DTD SVG 1.1//EN" "http://www.w3.org/Graphics/SVG/1.1/DTD/svg11.dtd">
<svg version="1.1" id="Layer_1" xmlns="http://www.w3.org/2000/svg" xmlns:xlink="http://www.w3.org/1999/xlink" x="0px" y="0px"
	 width="225px" height="107.393px" viewBox="0 0 225 107.393" enable-background="new 0 0 225 107.393" xml:space="preserve">
<g>
	<path fill="#54B6E7" d="M26.198,69.494c0,0.805-0.262,1.432-0.786,1.884c-0.525,0.451-1.238,0.677-2.14,0.677h-2.304
		c-0.756,0-1.378-0.262-1.866-0.786c-0.488-0.524-0.732-1.116-0.732-1.774v-3.01h-5.012v3.047c0,1,0.152,1.957,0.457,2.872
		c0.305,0.915,0.744,1.713,1.317,2.396c0.573,0.683,1.281,1.225,2.122,1.628c0.841,0.402,1.798,0.604,2.871,0.604h3.695
		c0.975,0,1.902-0.183,2.78-0.549c0.878-0.366,1.658-0.866,2.341-1.5c0.682-0.634,1.225-1.396,1.628-2.286
		c0.402-0.891,0.604-1.847,0.604-2.872V58.022h-4.975V69.494z"/>
	<path fill="#54B6E7" d="M134.264,70.594c0,0.415-0.086,0.732-0.256,0.951c-0.171,0.22-0.464,0.329-0.878,0.329H41.122h-0.841
		c-0.756,0-1.134-0.427-1.134-1.28V58.022h-5.048v13.779c0,1.536,0.414,2.762,1.244,3.676c0.829,0.915,1.963,1.372,3.402,1.372
		h2.378h93.398c0.682,0,1.31-0.146,1.884-0.439c0.573-0.293,1.073-0.682,1.5-1.17c0.426-0.488,0.756-1.048,0.988-1.683
		c0.231-0.634,0.348-1.292,0.348-1.975v-5.048h-4.975V70.594z"/>
	<path fill="#54B6E7" d="M136.751,62.545c0.633,0,1.17-0.22,1.609-0.659c0.439-0.439,0.658-0.975,0.658-1.61
		c0-0.634-0.219-1.17-0.658-1.61c-0.439-0.439-0.976-0.658-1.609-0.658c-0.634,0-1.171,0.22-1.61,0.658
		c-0.439,0.439-0.658,0.976-0.658,1.61c0,0.634,0.219,1.171,0.658,1.61C135.58,62.326,136.117,62.545,136.751,62.545z"/>
	<path fill="#54B6E7" d="M131.556,62.545c0.61,0,1.14-0.22,1.591-0.659c0.451-0.439,0.677-0.975,0.677-1.61
		c0-0.634-0.226-1.17-0.677-1.61c-0.451-0.439-0.982-0.658-1.591-0.658c-0.634,0-1.171,0.22-1.61,0.658
		c-0.439,0.439-0.658,0.976-0.658,1.61c0,0.634,0.22,1.171,0.658,1.61C130.386,62.326,130.922,62.545,131.556,62.545z"/>
	<path fill="#54B6E7" d="M159.465,66.147c-0.342-0.475-0.793-0.847-1.354-1.116c-0.561-0.268-1.256-0.402-2.085-0.402h-1.134v-0.293
		c0-0.561,0.061-0.957,0.183-1.189c0.122-0.232,0.316-0.347,0.585-0.347h4.353v-5.012h-4.426c-1.049,0-1.933,0.183-2.652,0.549
		c-0.719,0.366-1.305,0.848-1.756,1.445c-0.451,0.598-0.781,1.275-0.988,2.03c-0.208,0.756-0.311,1.536-0.311,2.341v4.865h5.158
		c0.268,0,0.463,0.11,0.585,0.329c0.122,0.22,0.183,0.439,0.183,0.659c0,0.561-0.342,1.043-1.024,1.445
		c-0.683,0.402-1.549,0.603-2.597,0.603h-2.926c-0.756,0-1.378-0.262-1.866-0.786c-0.488-0.524-0.732-1.116-0.732-1.774v-3.01
		h-5.012v3.047c0,1,0.152,1.957,0.457,2.872c0.305,0.915,0.744,1.713,1.317,2.396c0.573,0.683,1.281,1.225,2.122,1.628
		c0.841,0.402,1.798,0.604,2.871,0.604h5.268c1.024,0,1.951-0.177,2.78-0.53c0.829-0.354,1.542-0.848,2.14-1.482
		c0.597-0.634,1.055-1.39,1.371-2.268c0.317-0.878,0.476-1.854,0.476-2.926c0-0.707-0.08-1.378-0.238-2.012
		C160.056,67.177,159.806,66.622,159.465,66.147z"/>
	<path fill="#54B6E7" d="M169.488,57.605c-0.976,0-1.842,0.177-2.597,0.53c-0.756,0.354-1.396,0.848-1.92,1.482
		c-0.525,0.634-0.927,1.39-1.207,2.268c-0.28,0.878-0.421,1.854-0.421,2.926c0,1.097,0.195,2.018,0.585,2.762
		c0.39,0.744,0.909,1.354,1.555,1.829c0.646,0.475,1.402,0.823,2.268,1.042c0.865,0.22,1.774,0.354,2.725,0.402
		c-0.415,0.756-0.964,0.756-1.646,1c-0.683,0.243-1.415,0.366-2.195,0.366h-3.292l0.695,4.938h3c1.121,0,2.158-0.219,3.109-0.658
		c0.951-0.439,1.774-1.019,2.469-1.738c0.695-0.72,1.237-1.549,1.628-2.488c0.39-0.939,0.585-1.408,0.585-2.408v-4.646
		c0-2.658-0.482-4.591-1.445-5.798C172.421,58.209,171.122,57.605,169.488,57.605z M170.476,65.872h-0.366
		c-0.854,0-1.463-0.189-1.829-0.567c-0.366-0.378-0.548-0.92-0.548-1.628c0-0.463,0.097-0.865,0.293-1.207
		c0.195-0.341,0.548-0.512,1.061-0.512c0.341,0,0.658,0.141,0.951,0.421c0.293,0.281,0.439,0.738,0.439,1.372V65.872z"/>
	<path fill="#54B6E7" d="M195.056,66.147c-0.342-0.475-0.793-0.847-1.354-1.116c-0.561-0.268-1.256-0.402-2.085-0.402h-1.134v-0.293
		c0-0.561,0.061-0.957,0.183-1.189c0.122-0.232,0.316-0.347,0.585-0.347h4.353v-5.012h-4.426c-1.049,0-1.933,0.183-2.652,0.549
		c-0.719,0.366-1.305,0.848-1.756,1.445c-0.451,0.598-0.781,1.275-0.988,2.03c-0.208,0.756-0.311,1.536-0.311,2.341v4.865h5.158
		c0.268,0,0.463,0.11,0.585,0.329c0.122,0.22,0.183,0.439,0.183,0.659c0,0.561-0.342,1.043-1.024,1.445
		c-0.683,0.402-1.549,0.603-2.597,0.603h-2.926c-0.756,0-1.378-0.262-1.866-0.786c-0.488-0.524-0.732-1.116-0.732-1.774v-3.01
		h-5.011v3.047c0,1,0.152,1.957,0.457,2.872c0.305,0.915,0.744,1.713,1.317,2.396c0.573,0.683,1.281,1.225,2.122,1.628
		c0.841,0.402,1.798,0.604,2.871,0.604h5.268c1.024,0,1.951-0.177,2.78-0.53c0.829-0.354,1.542-0.848,2.14-1.482
		c0.597-0.634,1.054-1.39,1.371-2.268c0.317-0.878,0.476-1.854,0.476-2.926c0-0.707-0.08-1.378-0.238-2.012
		C195.647,67.177,195.397,66.622,195.056,66.147z"/>
	<path fill="#54B6E7" d="M212.577,65.391c-0.269-0.719-0.671-1.359-1.207-1.921l-6.292-5.694l-3.512,3.585l5.231,4.633
		c0.122,0.122,0.183,0.269,0.183,0.439c0,0.122-0.043,0.226-0.128,0.311c-0.086,0.086-0.189,0.128-0.311,0.128h-7.975l0.658,4.975
		h8.816c0.804,0,1.512-0.115,2.122-0.347c0.609-0.232,1.121-0.549,1.536-0.951c0.414-0.402,0.732-0.872,0.951-1.408
		c0.219-0.536,0.329-1.109,0.329-1.719C212.98,66.787,212.845,66.111,212.577,65.391z"/>
</g>
<g>
	<g>
		<path fill-rule="evenodd" clip-rule="evenodd" fill="#D9B451" d="M120.048,11.165c4.187-2.563,9.489-0.583,10.28-0.227
			l6.618,21.404l-7.598,10.622l-4.835-17.352l1.557-7.135l-2.736,5.625l-8.837,17.97c-4.964,2.295-11.235-0.058-11.235-0.058
			L92.724,19.314c0.373-6.123,4.437-9.327,4.437-9.327l21.077,0.115l-6.299,9.494l-8.55-0.008l0.004,0.009l-4.648,0.501l5.396,1.182
			l5.06,12.575L120.048,11.165z"/>
		<path fill="none" stroke="#D9B451" stroke-width="0.5566" stroke-miterlimit="10" d="M120.048,11.165
			c4.187-2.563,9.489-0.583,10.28-0.227l6.618,21.404l-7.598,10.622l-4.835-17.352l1.557-7.135l-2.736,5.625l-8.837,17.97
			c-4.964,2.295-11.235-0.058-11.235-0.058L92.724,19.314c0.373-6.123,4.437-9.327,4.437-9.327l21.077,0.115l-6.299,9.494
			l-8.55-0.008l0.004,0.009l-4.648,0.501l5.396,1.182l5.06,12.575L120.048,11.165z"/>
	</g>
	<g>
		<defs>
			<path id="SVGID_1_" d="M119.878,12.598c3.944-2.109,8.476-0.48,9.221-0.186l6.233,17.616l-5.772,9.952l-5.478-15.491l1.467-5.872
				l-2.577,4.63l-9.246,16c-4.675,1.889-9.197-0.047-9.197-0.047L93.68,19.305c0.351-5.04,4.179-7.676,4.179-7.676l18.468,0.095
				l-4.549,7.814l-7.592-0.007l0.004,0.007l-4.378,0.002l5.083,1.384l4.766,10.35L119.878,12.598z"/>
		</defs>
		<clipPath id="SVGID_2_">
			<use xlink:href="#SVGID_1_"  overflow="visible"/>
		</clipPath>
		
			<polygon clip-path="url(#SVGID_2_)" fill-rule="evenodd" clip-rule="evenodd" fill="#54B6E7" stroke="#2E67B2" stroke-width="0.4901" stroke-miterlimit="10" points="
			135.886,30.439 128.826,6.785 124.005,24.608 		"/>
		
			<polygon clip-path="url(#SVGID_2_)" fill-rule="evenodd" clip-rule="evenodd" fill="#47A2DA" stroke="#2E67B2" stroke-width="0.4901" stroke-miterlimit="10" points="
			119.136,11.535 123.971,24.473 128.791,6.65 		"/>
		
			<polygon clip-path="url(#SVGID_2_)" fill-rule="evenodd" clip-rule="evenodd" fill="#0F88CA" stroke="#2E67B2" stroke-width="0.4901" stroke-miterlimit="10" points="
			93.016,19.78 92.914,39.538 104.575,19.78 		"/>
		
			<polygon clip-path="url(#SVGID_2_)" fill-rule="evenodd" clip-rule="evenodd" fill="#47A2DA" stroke="#2E67B2" stroke-width="0.4901" stroke-miterlimit="10" points="
			104.545,39.538 104.647,19.78 92.987,39.538 		"/>
		
			<polygon clip-path="url(#SVGID_2_)" fill-rule="evenodd" clip-rule="evenodd" fill="#9DDCF9" stroke="#2E67B2" stroke-width="0.4901" stroke-miterlimit="10" points="
			104.753,40.41 104.647,17.342 116.822,40.41 		"/>
		
			<polygon clip-path="url(#SVGID_2_)" fill-rule="evenodd" clip-rule="evenodd" fill="#54B6E7" stroke="#2E67B2" stroke-width="0.4901" stroke-miterlimit="10" points="
			119.52,12.992 116.898,40.41 104.722,17.342 		"/>
		
			<polygon clip-path="url(#SVGID_2_)" fill-rule="evenodd" clip-rule="evenodd" fill="#0F88CA" stroke="#2E67B2" stroke-width="0.4901" stroke-miterlimit="10" points="
			123.528,23.412 119.451,12.502 117.754,33.796 		"/>
		
			<polygon clip-path="url(#SVGID_2_)" fill-rule="evenodd" clip-rule="evenodd" fill="#9DDCF9" stroke="#2E67B2" stroke-width="0.4901" stroke-miterlimit="10" points="
			129.205,41.167 136.346,30.801 123.95,24.708 		"/>
		
			<polygon clip-path="url(#SVGID_2_)" fill-rule="evenodd" clip-rule="evenodd" fill="#9DDCF9" stroke="#2E67B2" stroke-width="0.4901" stroke-miterlimit="10" points="
			117.016,11.205 96.75,11.101 112.025,19.78 		"/>
		
			<polygon clip-path="url(#SVGID_2_)" fill-rule="evenodd" clip-rule="evenodd" fill="#54B6E7" stroke="#2E67B2" stroke-width="0.4901" stroke-miterlimit="10" points="
			91.626,19.676 111.892,19.78 96.618,11.101 		"/>
	</g>
	<path fill-rule="evenodd" clip-rule="evenodd" fill="none" stroke="#D9B451" stroke-width="0.9801" stroke-miterlimit="10" d="
		M119.878,12.598c3.944-2.109,8.476-0.48,9.221-0.186l6.233,17.616l-5.772,9.952l-5.478-15.491l1.467-5.872l-2.577,4.63l-9.246,16
		c-4.675,1.889-9.197-0.047-9.197-0.047L93.68,19.305c0.351-5.04,4.179-7.676,4.179-7.676l18.468,0.095l-4.549,7.814l-7.592-0.007
		l0.004,0.007l-4.378,0.501l5.083,0.885l4.766,10.35L119.878,12.598z"/>
	<path fill-rule="evenodd" clip-rule="evenodd" fill="none" stroke="#2E67B2" stroke-width="0.9801" stroke-miterlimit="10" d="
		M119.878,12.598c3.944-2.109,8.476-0.48,9.221-0.186l6.233,17.616l-5.772,9.952l-5.478-15.491l1.467-5.872l-2.577,4.63l-9.246,16
		c-4.675,1.889-9.197-0.047-9.197-0.047L93.68,19.305c0.351-5.04,4.179-7.676,4.179-7.676l18.468,0.095l-4.549,7.814l-7.592-0.007
		l0.004,0.007l-4.378,0.501l5.083,0.885l4.766,10.35L119.878,12.598z"/>
</g>
<g>
	<path fill="#D9B451" d="M13.493,84.537h4.066c0.802,0,1.449,0.108,1.942,0.326c0.493,0.217,0.901,0.529,1.224,0.937
		c0.322,0.406,0.556,0.88,0.701,1.419c0.145,0.54,0.217,1.112,0.217,1.716c0,0.947-0.107,1.681-0.323,2.202
		c-0.215,0.522-0.514,0.959-0.897,1.312s-0.793,0.587-1.232,0.704c-0.6,0.161-1.144,0.241-1.631,0.241h-4.066V84.537z
		 M16.229,86.542v4.839H16.9c0.572,0,0.979-0.063,1.22-0.19s0.431-0.349,0.568-0.664c0.137-0.316,0.206-0.829,0.206-1.538
		c0-0.938-0.153-1.581-0.459-1.927c-0.306-0.347-0.813-0.52-1.522-0.52H16.229z"/>
	<path fill="#D9B451" d="M36.635,84.537h2.861l1.994,6.373l1.968-6.373h2.778l-3.289,8.856H39.98L36.635,84.537z"/>
	<path fill="#D9B451" d="M61.354,84.537h8.319v2.187h-2.791v6.67h-2.737v-6.67h-2.791V84.537z"/>
	<path fill="#D9B451" d="M90.365,91.931h-3.107l-0.432,1.462h-2.794l3.329-8.856h2.985l3.328,8.856h-2.866L90.365,91.931z
		 M89.797,90.016l-0.978-3.185l-0.968,3.185H89.797z"/>
	<path fill="#D9B451" d="M109.392,84.537h2.737v6.676h4.271v2.181h-7.009V84.537z"/>
	<path fill="#D9B451" d="M132.335,90.928h2.628v2.465h-2.628V90.928z"/>
	<path fill="#D9B451" d="M157.356,89.768l2.398,0.725c-0.161,0.673-0.415,1.235-0.762,1.687c-0.346,0.45-0.776,0.791-1.29,1.021
		c-0.513,0.229-1.167,0.345-1.96,0.345c-0.963,0-1.749-0.141-2.359-0.42s-1.137-0.771-1.58-1.477
		c-0.442-0.704-0.664-1.605-0.664-2.704c0-1.466,0.39-2.592,1.169-3.378c0.779-0.787,1.882-1.181,3.308-1.181
		c1.115,0,1.992,0.226,2.631,0.677s1.113,1.144,1.423,2.078l-2.416,0.538c-0.085-0.271-0.174-0.468-0.267-0.593
		c-0.152-0.209-0.34-0.37-0.562-0.483c-0.222-0.112-0.47-0.169-0.743-0.169c-0.62,0-1.096,0.25-1.426,0.748
		c-0.25,0.37-0.375,0.952-0.375,1.744c0,0.981,0.149,1.654,0.447,2.019s0.717,0.546,1.257,0.546c0.523,0,0.919-0.146,1.188-0.44
		C157.041,90.755,157.235,90.328,157.356,89.768z"/>
	<path fill="#D9B451" d="M175.587,88.97c0-1.445,0.402-2.571,1.208-3.377s1.928-1.208,3.365-1.208c1.475,0,2.61,0.396,3.407,1.188
		c0.798,0.791,1.196,1.899,1.196,3.325c0,1.035-0.174,1.884-0.522,2.547c-0.349,0.662-0.852,1.178-1.51,1.547
		c-0.659,0.368-1.479,0.553-2.462,0.553c-0.999,0-1.826-0.159-2.48-0.478s-1.186-0.821-1.592-1.511
		C175.79,90.868,175.587,90.006,175.587,88.97z M178.324,88.983c0,0.894,0.166,1.536,0.498,1.927s0.784,0.586,1.356,0.586
		c0.588,0,1.043-0.19,1.365-0.573s0.483-1.069,0.483-2.061c0-0.834-0.168-1.442-0.505-1.827c-0.336-0.385-0.792-0.577-1.368-0.577
		c-0.552,0-0.995,0.195-1.329,0.586S178.324,88.08,178.324,88.983z"/>
	<path fill="#D9B451" d="M201.056,84.537h3.599l1.389,5.389l1.378-5.389h3.597v8.856h-2.241v-6.754l-1.727,6.754h-2.029
		l-1.724-6.754v6.754h-2.241V84.537z"/>
</g>
</svg>
