<?xml version="1.0" encoding="utf-8"?>
<!-- Generator: Adobe Illustrator 17.0.0, SVG Export Plug-In . SVG Version: 6.00 Build 0)  -->
<!DOCTYPE svg PUBLIC "-//W3C//DTD SVG 1.1//EN" "http://www.w3.org/Graphics/SVG/1.1/DTD/svg11.dtd">
<svg version="1.1" id="Layer_1" xmlns="http://www.w3.org/2000/svg" xmlns:xlink="http://www.w3.org/1999/xlink" x="0px" y="0px"
	 width="251px" height="106px" viewBox="295.445 245.14 251 106" enable-background="new 295.445 245.14 251 106"
	 xml:space="preserve">
<path fill="#2E67B2" stroke="#D9B451" stroke-width="2.7409" stroke-miterlimit="10" d="M511.311,270.521h-22.128
	c-6.377-7.003-13.363-11.324-22.971-11.324c-6.159,0-11.948,1.776-16.992,4.893c-7.738-8.889-19.373-14.409-31.296-14.409
	c-12.613,0-24.802,6.175-32.609,15.983c-2.95-2.218-9.935-3.516-13.747-3.516c-8.176,0-19.407,5.955-21.897,14.219
	c-4.833-3.69-10.664-5.845-16.942-5.845c-16.705,0-31.968,15.259-31.968,34.081c0,18.481,14.778,33.515,31.063,34.056v0.289h55.588
	c6.403,4.329,13.894,6.823,21.905,6.823s15.502-2.494,21.905-6.823h80.089v-0.263c16.705,0,30.246-15.259,30.246-34.081
	S528.015,270.521,511.311,270.521z"/>
<path fill="none" stroke="#54B6E7" stroke-width="0.8607" stroke-miterlimit="10" d="M509.806,274.536h-23.912
	c-5.839-6.413-9.527-9.81-18.307-10.369c-7.696-0.49-14.383,3.347-19.002,6.202c-7.085-8.139-16.309-15.766-31.311-15.776
	c-16.124-0.011-24.505,9.097-31.653,18.078c-2.534-2.534-9.412-6.044-16.176-4.941c-8.322,1.358-15.696,8.035-17.976,15.602
	c-4.094-4.094-12.347-7.074-18.096-7.074c-15.296,0-27.696,10.529-27.696,27.765c0,16.922,13.677,29.828,28.589,30.323v0.264h55.205
	c5.863,3.964,12.723,6.248,20.058,6.248c7.335,0,14.195-2.284,20.058-6.248h80.221v-0.241c15.296,0,27.696-13.111,27.696-30.347
	C537.502,286.787,525.103,274.536,509.806,274.536z"/>
<g>
	<path fill="#54B6E7" d="M382.456,327.226h-0.649v-2.071c0-0.147-0.006-0.318-0.018-0.511c-0.012-0.192-0.03-0.387-0.054-0.582
		c-0.023-0.195-0.058-0.384-0.102-0.564s-0.096-0.333-0.156-0.458l0.64-0.222c0.053,0.166,0.103,0.331,0.147,0.497
		s0.08,0.343,0.106,0.529s0.047,0.387,0.062,0.6c0.015,0.214,0.022,0.45,0.022,0.711v2.071H382.456z"/>
	<path fill="#54B6E7" d="M388.047,324.729c0,0.064,0.001,0.133,0.004,0.204s0.004,0.146,0.004,0.222v2.071h-0.649v-2.071
		c0-0.147-0.006-0.318-0.018-0.511c-0.012-0.192-0.03-0.387-0.054-0.582c-0.023-0.195-0.058-0.384-0.102-0.564
		s-0.096-0.333-0.156-0.458l0.631-0.213l0.009-0.009c0.059,0.189,0.113,0.376,0.16,0.56s0.086,0.382,0.115,0.596
		c0.065,0.255,0.229,0.382,0.489,0.382c0.154,0,0.262-0.052,0.324-0.155c0.062-0.104,0.084-0.227,0.067-0.369l-0.107-0.809
		l0.623-0.214l0.168,1.076c0.006,0.047,0.007,0.095,0.004,0.142c-0.003,0.048-0.01,0.096-0.022,0.143
		c0.059,0.065,0.127,0.115,0.205,0.151c0.077,0.035,0.157,0.053,0.24,0.053c0.077,0,0.138-0.016,0.182-0.049
		c0.044-0.032,0.079-0.073,0.103-0.124c0.023-0.051,0.04-0.108,0.049-0.174c0.009-0.064,0.016-0.13,0.022-0.195l-0.125-0.809
		l0.64-0.204c0.03,0.242,0.052,0.431,0.067,0.564c0.015,0.133,0.026,0.233,0.036,0.302c0.009,0.068,0.013,0.114,0.013,0.138
		s0,0.042,0,0.054c0,0.16-0.024,0.302-0.071,0.427c-0.047,0.124-0.111,0.23-0.191,0.319s-0.172,0.156-0.276,0.2
		c-0.104,0.045-0.208,0.066-0.315,0.066c-0.112,0-0.235-0.029-0.369-0.089c-0.133-0.059-0.253-0.147-0.36-0.267
		c-0.06,0.089-0.132,0.166-0.218,0.231s-0.188,0.112-0.307,0.143c-0.16,0.041-0.302,0.043-0.426,0.004
		C388.314,324.872,388.184,324.812,388.047,324.729z"/>
	<path fill="#54B6E7" d="M397.469,323.99c-0.089,0.344-0.177,0.658-0.262,0.942c-0.086,0.284-0.18,0.554-0.28,0.809
		s-0.212,0.502-0.333,0.742s-0.259,0.487-0.413,0.742l-0.587-0.311c0.202-0.344,0.388-0.673,0.56-0.987
		c0.172-0.313,0.325-0.632,0.458-0.955s0.249-0.659,0.347-1.009s0.176-0.732,0.235-1.146h0.542c0.059,0.414,0.139,0.797,0.24,1.146
		s0.218,0.686,0.351,1.009s0.286,0.642,0.458,0.955c0.172,0.314,0.358,0.644,0.56,0.987l-0.596,0.311
		c-0.154-0.255-0.291-0.502-0.409-0.742c-0.119-0.24-0.229-0.487-0.329-0.742c-0.101-0.255-0.194-0.524-0.28-0.809
		C397.645,324.648,397.558,324.334,397.469,323.99z"/>
	<path fill="#54B6E7" d="M404.233,322.737c0.059,0.047,0.138,0.104,0.235,0.173s0.228,0.12,0.391,0.155
		c0.163,0.036,0.364,0.044,0.604,0.022c0.24-0.021,0.529-0.093,0.867-0.218l0.24,0.169c-0.071,0.35-0.115,0.704-0.133,1.062
		s-0.01,0.703,0.022,1.035s0.09,0.646,0.173,0.942c0.083,0.297,0.189,0.554,0.32,0.773l-0.586,0.382
		c-0.143-0.249-0.252-0.491-0.329-0.729s-0.129-0.495-0.156-0.773c-0.026-0.278-0.029-0.591-0.009-0.938
		c0.021-0.347,0.055-0.751,0.103-1.214c-0.314,0.107-0.584,0.166-0.809,0.178c-0.225,0.013-0.417-0.001-0.573-0.04
		c-0.157-0.038-0.286-0.096-0.387-0.173c-0.101-0.077-0.181-0.151-0.24-0.223L404.233,322.737z"/>
</g>
<g>
	<path fill="#54B6E7" d="M341.03,310.797v4.453c0,0.255-0.051,0.49-0.151,0.707c-0.101,0.216-0.234,0.403-0.4,0.56
		c-0.166,0.157-0.357,0.28-0.573,0.369s-0.443,0.134-0.68,0.134h-0.88c-0.261,0-0.493-0.049-0.698-0.146
		c-0.205-0.099-0.376-0.231-0.516-0.4s-0.246-0.364-0.32-0.587c-0.074-0.222-0.111-0.455-0.111-0.697v-1.601h1.014v1.592
		c0,0.106,0.021,0.21,0.062,0.311s0.099,0.189,0.173,0.267s0.165,0.14,0.271,0.187c0.107,0.048,0.222,0.071,0.347,0.071h0.507
		c0.29,0,0.52-0.075,0.689-0.227s0.253-0.354,0.253-0.608v-4.383h1.013V310.797z"/>
	<path fill="#54B6E7" d="M342.896,315.366c-0.338,0-0.585-0.105-0.742-0.315c-0.157-0.211-0.236-0.503-0.236-0.876v-3.378h1.014
		v3.183c0,0.166,0.023,0.27,0.071,0.311c0.047,0.042,0.148,0.062,0.302,0.062h0.151v1.014h-0.56V315.366z"/>
	<path fill="#54B6E7" d="M345.741,315.366c-0.172,0-0.326-0.068-0.462-0.205c-0.065,0.065-0.136,0.116-0.213,0.151
		c-0.077,0.036-0.166,0.054-0.267,0.054h-1.342c-0.047,0-0.095-0.006-0.142-0.018c-0.047-0.013-0.071-0.03-0.071-0.054v-0.88
		c0-0.023,0.024-0.04,0.071-0.049s0.095-0.014,0.142-0.014h1.013c0.196,0,0.293-0.106,0.293-0.32v-1.093h1.013v1.093
		c0,0.214,0.101,0.32,0.302,0.32h0.16v1.014h-0.497V315.366z M343.679,311.739c0-0.147,0.052-0.275,0.156-0.382
		c0.104-0.106,0.229-0.16,0.377-0.16c0.154,0,0.283,0.054,0.387,0.16s0.156,0.234,0.156,0.382c0,0.148-0.052,0.274-0.156,0.378
		s-0.232,0.155-0.387,0.155c-0.148,0-0.274-0.052-0.377-0.155C343.73,312.014,343.679,311.888,343.679,311.739z M344.932,311.739
		c0-0.147,0.05-0.275,0.151-0.382c0.101-0.106,0.228-0.16,0.382-0.16c0.148,0,0.275,0.054,0.382,0.16
		c0.106,0.106,0.16,0.234,0.16,0.382c0,0.148-0.054,0.274-0.16,0.378c-0.107,0.104-0.234,0.155-0.382,0.155
		c-0.154,0-0.281-0.052-0.382-0.155C344.982,312.014,344.932,311.888,344.932,311.739z"/>
	<path fill="#54B6E7" d="M348.522,315.366c-0.172,0-0.326-0.068-0.462-0.205c-0.065,0.065-0.136,0.116-0.213,0.151
		c-0.077,0.036-0.166,0.054-0.267,0.054h-1.342c-0.047,0-0.095-0.006-0.142-0.018c-0.047-0.013-0.071-0.03-0.071-0.054v-0.88
		c0-0.023,0.024-0.04,0.071-0.049s0.095-0.014,0.142-0.014h1.013c0.196,0,0.293-0.106,0.293-0.32v-1.093h1.013v1.093
		c0,0.214,0.101,0.32,0.302,0.32h0.16v1.014h-0.497V315.366z M346.46,316.69c0-0.148,0.052-0.274,0.156-0.378
		s0.229-0.155,0.377-0.155c0.154,0,0.283,0.052,0.387,0.155s0.156,0.229,0.156,0.378s-0.052,0.275-0.156,0.382
		s-0.232,0.16-0.387,0.16c-0.148,0-0.274-0.053-0.377-0.16C346.512,316.966,346.46,316.839,346.46,316.69z M347.714,316.69
		c0-0.148,0.05-0.274,0.151-0.378s0.228-0.155,0.382-0.155c0.148,0,0.275,0.052,0.382,0.155c0.106,0.104,0.16,0.229,0.16,0.378
		s-0.054,0.275-0.16,0.382c-0.107,0.107-0.234,0.16-0.382,0.16c-0.154,0-0.281-0.053-0.382-0.16
		C347.764,316.966,347.714,316.839,347.714,316.69z"/>
	<path fill="#54B6E7" d="M352.825,315.366c-0.498,0-0.871-0.223-1.12-0.667l-0.285,0.16c-0.296,0.172-0.569,0.299-0.818,0.382
		c-0.249,0.083-0.524,0.125-0.827,0.125h-0.755c-0.047,0-0.095-0.006-0.142-0.018c-0.047-0.013-0.071-0.03-0.071-0.054v-0.88
		c0-0.023,0.024-0.04,0.071-0.049s0.095-0.014,0.142-0.014h0.586c0.226,0,0.424-0.012,0.596-0.035s0.326-0.065,0.462-0.125
		c0.036-0.012,0.149-0.069,0.342-0.173c0.192-0.104,0.463-0.25,0.813-0.44c-0.023-0.083-0.075-0.153-0.155-0.213
		s-0.23-0.089-0.449-0.089h-1.52l-0.143-1.005h1.849c0.509,0,0.889,0.154,1.138,0.463c0.249,0.308,0.373,0.74,0.373,1.297
		l-0.48,0.268c0.036,0.035,0.11,0.053,0.222,0.053h0.436v1.014H352.825z M350.327,316.699c0-0.148,0.052-0.274,0.156-0.378
		s0.229-0.155,0.377-0.155s0.276,0.052,0.382,0.155s0.16,0.229,0.16,0.378s-0.054,0.275-0.16,0.382
		c-0.106,0.107-0.234,0.16-0.382,0.16s-0.274-0.053-0.377-0.16C350.379,316.975,350.327,316.848,350.327,316.699z"/>
	<path fill="#54B6E7" d="M352.62,316.69c0-0.148,0.052-0.274,0.156-0.378s0.229-0.155,0.377-0.155c0.154,0,0.283,0.052,0.387,0.155
		s0.156,0.229,0.156,0.378s-0.052,0.275-0.156,0.382s-0.232,0.16-0.387,0.16c-0.148,0-0.274-0.053-0.377-0.16
		C352.672,316.966,352.62,316.839,352.62,316.69z M352.878,314.415c0-0.023,0.024-0.04,0.071-0.049s0.095-0.014,0.142-0.014h0.996
		c0.208,0,0.311-0.106,0.311-0.32v-1.093h1.013v1.182c0,0.16-0.028,0.314-0.084,0.463c-0.056,0.148-0.133,0.279-0.231,0.396
		c-0.098,0.115-0.213,0.209-0.347,0.28c-0.133,0.07-0.28,0.106-0.44,0.106h-1.218c-0.047,0-0.095-0.006-0.142-0.018
		c-0.047-0.013-0.071-0.03-0.071-0.054L352.878,314.415L352.878,314.415z M353.874,316.69c0-0.148,0.05-0.274,0.151-0.378
		s0.228-0.155,0.382-0.155c0.148,0,0.276,0.052,0.382,0.155s0.16,0.229,0.16,0.378s-0.054,0.275-0.16,0.382
		c-0.106,0.107-0.234,0.16-0.382,0.16c-0.154,0-0.281-0.053-0.382-0.16C353.924,316.966,353.874,316.839,353.874,316.69z"/>
	<path fill="#54B6E7" d="M356.255,315.366l-0.133-1.005h2.329c0.042,0,0.074-0.01,0.098-0.031c0.023-0.021,0.036-0.046,0.036-0.075
		c0-0.041-0.018-0.08-0.053-0.115l-1.574-1.681l0.711-0.72l1.573,1.653c0.136,0.143,0.234,0.298,0.293,0.467s0.089,0.33,0.089,0.484
		c0,0.137-0.025,0.267-0.076,0.392c-0.05,0.124-0.125,0.233-0.222,0.328s-0.219,0.169-0.365,0.223
		c-0.145,0.053-0.31,0.08-0.493,0.08H356.255z"/>
	<path fill="#54B6E7" d="M366.397,315.135c0,0.261-0.046,0.505-0.138,0.733c-0.092,0.229-0.218,0.428-0.378,0.6
		s-0.35,0.307-0.569,0.405s-0.457,0.146-0.711,0.146h-1.004c-0.302,0-0.563-0.045-0.782-0.134c-0.219-0.089-0.402-0.213-0.547-0.373
		s-0.252-0.35-0.32-0.569s-0.103-0.459-0.103-0.72v-1.636h1.014v1.636c0,0.112,0.025,0.217,0.075,0.312s0.116,0.178,0.196,0.249
		c0.08,0.07,0.17,0.125,0.271,0.164c0.101,0.038,0.205,0.058,0.311,0.058h0.845c0.101,0,0.204-0.017,0.311-0.049
		c0.106-0.032,0.203-0.08,0.289-0.143c0.086-0.062,0.157-0.136,0.213-0.222s0.084-0.18,0.084-0.28c0-0.106-0.03-0.195-0.089-0.267
		s-0.151-0.106-0.275-0.106h-1.227v-1.2c0-0.189,0.038-0.367,0.115-0.533s0.179-0.312,0.307-0.436s0.274-0.223,0.44-0.293
		c0.166-0.071,0.338-0.107,0.516-0.107h1.004v1.014h-0.986c-0.249,0-0.374,0.137-0.374,0.409v0.239h0.471
		c0.379,0,0.647,0.1,0.804,0.298C366.319,314.529,366.397,314.797,366.397,315.135z"/>
	<path fill="#54B6E7" d="M367.277,315.366v-4.569h1.014v4.569H367.277z"/>
	<path fill="#54B6E7" d="M371.899,315.366c-0.018,0.236-0.082,0.456-0.191,0.657c-0.109,0.202-0.249,0.377-0.417,0.524
		c-0.169,0.148-0.36,0.264-0.573,0.347s-0.433,0.125-0.658,0.125h-0.747l-0.133-0.996h0.765c0.213,0,0.41-0.053,0.591-0.16
		c0.181-0.106,0.292-0.272,0.333-0.497c-0.255-0.006-0.486-0.033-0.693-0.08c-0.208-0.048-0.385-0.128-0.533-0.24
		s-0.262-0.261-0.342-0.444s-0.12-0.415-0.12-0.693c0-0.521,0.108-0.92,0.325-1.195s0.556-0.413,1.018-0.413
		c0.202,0,0.387,0.034,0.556,0.102s0.314,0.172,0.436,0.312c0.122,0.139,0.216,0.316,0.284,0.533
		c0.068,0.217,0.103,0.476,0.103,0.777v0.329h0.364v1.014h-0.368V315.366z M370.868,314.353v-0.56c0-0.172-0.042-0.295-0.125-0.369
		s-0.169-0.111-0.258-0.111c-0.136,0-0.231,0.045-0.284,0.134s-0.08,0.195-0.08,0.319c0,0.19,0.05,0.335,0.151,0.436
		c0.101,0.102,0.264,0.151,0.489,0.151L370.868,314.353L370.868,314.353z"/>
	<path fill="#54B6E7" d="M374.548,315.366c-0.172,0-0.326-0.068-0.462-0.205c-0.065,0.065-0.136,0.116-0.213,0.151
		c-0.077,0.036-0.166,0.054-0.267,0.054h-1.342c-0.047,0-0.095-0.006-0.142-0.018c-0.047-0.013-0.071-0.03-0.071-0.054v-0.88
		c0-0.023,0.024-0.04,0.071-0.049s0.095-0.014,0.142-0.014h1.013c0.196,0,0.293-0.106,0.293-0.32v-1.093h1.013v1.093
		c0,0.214,0.101,0.32,0.302,0.32h0.16v1.014h-0.497V315.366z M372.486,311.739c0-0.147,0.052-0.275,0.156-0.382
		c0.104-0.106,0.229-0.16,0.377-0.16c0.154,0,0.283,0.054,0.387,0.16s0.156,0.234,0.156,0.382c0,0.148-0.052,0.274-0.156,0.378
		s-0.232,0.155-0.387,0.155c-0.148,0-0.274-0.052-0.377-0.155C372.538,312.014,372.486,311.888,372.486,311.739z M373.739,311.739
		c0-0.147,0.05-0.275,0.151-0.382c0.101-0.106,0.228-0.16,0.382-0.16c0.148,0,0.275,0.054,0.382,0.16
		c0.106,0.106,0.16,0.234,0.16,0.382c0,0.148-0.054,0.274-0.16,0.378c-0.107,0.104-0.234,0.155-0.382,0.155
		c-0.154,0-0.281-0.052-0.382-0.155C373.79,312.014,373.739,311.888,373.739,311.739z"/>
	<path fill="#54B6E7" d="M378.85,315.366c-0.498,0-0.871-0.223-1.12-0.667l-0.285,0.16c-0.296,0.172-0.569,0.299-0.818,0.382
		c-0.249,0.083-0.524,0.125-0.827,0.125h-0.755c-0.047,0-0.095-0.006-0.142-0.018c-0.047-0.013-0.071-0.03-0.071-0.054v-0.88
		c0-0.023,0.024-0.04,0.071-0.049s0.095-0.014,0.142-0.014h0.586c0.226,0,0.424-0.012,0.596-0.035s0.326-0.065,0.462-0.125
		c0.036-0.012,0.149-0.069,0.342-0.173c0.192-0.104,0.463-0.25,0.813-0.44c-0.023-0.083-0.075-0.153-0.155-0.213
		s-0.23-0.089-0.449-0.089h-1.52l-0.143-1.005h1.849c0.509,0,0.889,0.154,1.138,0.463c0.249,0.308,0.373,0.74,0.373,1.297
		l-0.48,0.268c0.036,0.035,0.11,0.053,0.222,0.053h0.436v1.014H378.85z"/>
	<path fill="#54B6E7" d="M378.903,314.415c0-0.023,0.024-0.04,0.071-0.049s0.095-0.014,0.142-0.014h0.089
		c0.166,0,0.289-0.038,0.369-0.115s0.12-0.208,0.12-0.392c0-0.195,0.031-0.388,0.093-0.577c0.062-0.189,0.151-0.36,0.267-0.512
		c0.115-0.15,0.254-0.272,0.417-0.364s0.342-0.138,0.538-0.138c0.213,0,0.406,0.049,0.578,0.146s0.317,0.226,0.436,0.383
		c0.118,0.156,0.21,0.332,0.275,0.524s0.098,0.384,0.098,0.573c0,0.207-0.034,0.401-0.102,0.582s-0.163,0.338-0.285,0.471
		c-0.121,0.134-0.268,0.239-0.44,0.315c-0.172,0.077-0.358,0.116-0.56,0.116c-0.42,0-0.729-0.134-0.924-0.4
		c-0.172,0.267-0.447,0.4-0.827,0.4h-0.142c-0.047,0-0.095-0.006-0.142-0.018c-0.047-0.013-0.071-0.03-0.071-0.054L378.903,314.415
		L378.903,314.415z M381.028,313.26c-0.136,0-0.25,0.044-0.342,0.133s-0.138,0.231-0.138,0.427c0,0.172,0.047,0.304,0.142,0.396
		s0.208,0.138,0.338,0.138c0.16,0,0.284-0.05,0.373-0.151s0.133-0.228,0.133-0.382c0-0.137-0.043-0.264-0.128-0.382
		C381.319,313.318,381.193,313.26,381.028,313.26z"/>
	<path fill="#54B6E7" d="M388.939,310.797v4.453c0,0.255-0.051,0.49-0.151,0.707c-0.101,0.216-0.234,0.403-0.4,0.56
		c-0.166,0.157-0.357,0.28-0.573,0.369s-0.443,0.134-0.68,0.134h-0.88c-0.261,0-0.493-0.049-0.698-0.146
		c-0.205-0.099-0.376-0.231-0.516-0.4s-0.246-0.364-0.32-0.587c-0.074-0.222-0.111-0.455-0.111-0.697v-1.601h1.014v1.592
		c0,0.106,0.021,0.21,0.062,0.311s0.099,0.189,0.173,0.267s0.165,0.14,0.271,0.187c0.107,0.048,0.222,0.071,0.347,0.071h0.507
		c0.29,0,0.52-0.075,0.689-0.227s0.253-0.354,0.253-0.608v-4.383h1.013V310.797z"/>
	<path fill="#54B6E7" d="M391.978,315.366c-0.124,0-0.231-0.036-0.32-0.106c0,0.29-0.055,0.545-0.165,0.764
		c-0.109,0.22-0.252,0.403-0.426,0.552c-0.175,0.147-0.369,0.259-0.583,0.333s-0.427,0.111-0.64,0.111h-0.382l-0.151-0.996h0.187
		c0.213,0,0.392-0.023,0.538-0.071c0.145-0.047,0.262-0.107,0.351-0.182s0.154-0.159,0.195-0.254s0.062-0.192,0.062-0.293v-2.284
		h1.013v1.173c0.006,0.16,0.11,0.24,0.311,0.24h0.151v1.014h-0.141V315.366z"/>
	<path fill="#54B6E7" d="M394.405,315.366c-0.172,0-0.326-0.068-0.462-0.205c-0.065,0.065-0.136,0.116-0.213,0.151
		c-0.077,0.036-0.166,0.054-0.267,0.054h-1.342c-0.047,0-0.095-0.006-0.142-0.018c-0.047-0.013-0.071-0.03-0.071-0.054v-0.88
		c0-0.023,0.024-0.04,0.071-0.049s0.095-0.014,0.142-0.014h1.013c0.196,0,0.293-0.106,0.293-0.32v-1.093h1.013v1.093
		c0,0.214,0.101,0.32,0.302,0.32h0.16v1.014h-0.497V315.366z M392.343,311.739c0-0.147,0.052-0.275,0.156-0.382
		c0.104-0.106,0.229-0.16,0.377-0.16c0.154,0,0.283,0.054,0.387,0.16s0.156,0.234,0.156,0.382c0,0.148-0.052,0.274-0.156,0.378
		s-0.232,0.155-0.387,0.155c-0.148,0-0.274-0.052-0.377-0.155C392.395,312.014,392.343,311.888,392.343,311.739z M393.596,311.739
		c0-0.147,0.05-0.275,0.151-0.382c0.101-0.106,0.228-0.16,0.382-0.16c0.148,0,0.275,0.054,0.382,0.16
		c0.106,0.106,0.16,0.234,0.16,0.382c0,0.148-0.054,0.274-0.16,0.378c-0.107,0.104-0.234,0.155-0.382,0.155
		c-0.154,0-0.281-0.052-0.382-0.155C393.646,312.014,393.596,311.888,393.596,311.739z"/>
	<path fill="#54B6E7" d="M397.187,315.366c-0.172,0-0.326-0.068-0.462-0.205c-0.065,0.065-0.136,0.116-0.213,0.151
		c-0.077,0.036-0.166,0.054-0.267,0.054h-1.342c-0.047,0-0.095-0.006-0.142-0.018c-0.047-0.013-0.071-0.03-0.071-0.054v-0.88
		c0-0.023,0.024-0.04,0.071-0.049s0.095-0.014,0.142-0.014h1.013c0.196,0,0.293-0.106,0.293-0.32v-1.093h1.013v1.093
		c0,0.214,0.101,0.32,0.302,0.32h0.16v1.014h-0.497V315.366z M395.756,311.739c0-0.147,0.052-0.275,0.155-0.382
		s0.229-0.16,0.378-0.16c0.148,0,0.275,0.054,0.382,0.16c0.106,0.106,0.16,0.234,0.16,0.382c0,0.148-0.053,0.274-0.16,0.378
		s-0.234,0.155-0.382,0.155c-0.148,0-0.274-0.052-0.378-0.155S395.756,311.888,395.756,311.739z"/>
	<path fill="#54B6E7" d="M397.471,314.415c0-0.023,0.024-0.04,0.071-0.049s0.095-0.014,0.142-0.014h1.831
		c0.125,0,0.187-0.047,0.187-0.143c0-0.047-0.021-0.092-0.062-0.133l-1.725-1.805l-0.106-0.933l2.711-0.987l0.16,1.005l-1.618,0.631
		l1.369,1.467c0.119,0.118,0.208,0.255,0.267,0.409c0.059,0.153,0.089,0.305,0.089,0.453c0,0.136-0.025,0.267-0.076,0.391
		c-0.05,0.125-0.124,0.235-0.222,0.334c-0.098,0.098-0.224,0.176-0.377,0.235c-0.154,0.059-0.332,0.089-0.534,0.089h-1.893
		c-0.047,0-0.095-0.006-0.142-0.018c-0.047-0.013-0.071-0.03-0.071-0.054L397.471,314.415L397.471,314.415z"/>
	<path fill="#54B6E7" d="M403.009,316.023h0.765c0.213,0,0.41-0.053,0.591-0.16c0.181-0.106,0.292-0.272,0.333-0.497
		c-0.255-0.006-0.486-0.033-0.693-0.08c-0.208-0.048-0.385-0.128-0.533-0.24s-0.262-0.261-0.342-0.444s-0.12-0.415-0.12-0.693
		c0-0.521,0.108-0.92,0.325-1.195s0.556-0.413,1.018-0.413c0.202,0,0.387,0.032,0.556,0.098s0.314,0.167,0.436,0.307
		c0.122,0.139,0.216,0.316,0.284,0.533c0.068,0.216,0.103,0.479,0.103,0.786v1.236c0,0.248-0.052,0.479-0.156,0.692
		c-0.104,0.214-0.241,0.4-0.413,0.561s-0.369,0.284-0.591,0.373s-0.449,0.134-0.68,0.134h-0.747L403.009,316.023z M404.698,314.353
		v-0.56c0-0.172-0.042-0.295-0.125-0.369s-0.169-0.111-0.258-0.111c-0.136,0-0.231,0.045-0.284,0.134s-0.08,0.195-0.08,0.319
		c0,0.19,0.05,0.335,0.151,0.436c0.101,0.102,0.264,0.151,0.489,0.151L404.698,314.353L404.698,314.353z"/>
	<path fill="#54B6E7" d="M416.182,315.366c-0.136,0-0.256-0.017-0.36-0.049c-0.104-0.033-0.188-0.091-0.253-0.174
		c-0.101,0.101-0.216,0.18-0.347,0.235c-0.13,0.057-0.275,0.085-0.436,0.085c-0.403,0-0.702-0.14-0.897-0.418
		c-0.113,0.137-0.246,0.24-0.4,0.312c-0.154,0.07-0.317,0.106-0.489,0.106c-0.083,0-0.16-0.009-0.231-0.026
		c-0.071-0.019-0.146-0.042-0.222-0.071c-0.012,0.242-0.07,0.465-0.173,0.666c-0.104,0.202-0.237,0.375-0.4,0.521
		c-0.163,0.145-0.35,0.259-0.56,0.342s-0.431,0.125-0.662,0.125h-1.156c-0.261,0-0.493-0.049-0.698-0.146
		c-0.205-0.099-0.376-0.231-0.516-0.4s-0.246-0.364-0.32-0.587c-0.074-0.222-0.111-0.455-0.111-0.697v-1.601h1.014v1.592
		c0,0.106,0.021,0.21,0.062,0.311s0.099,0.189,0.173,0.267s0.165,0.14,0.271,0.187c0.107,0.048,0.222,0.071,0.347,0.071h0.782
		c0.296,0,0.527-0.075,0.693-0.227s0.249-0.354,0.249-0.608v-2.24h1.013v1.129c0,0.137,0.034,0.232,0.102,0.289
		c0.068,0.056,0.141,0.084,0.218,0.084c0.089,0,0.167-0.031,0.236-0.093c0.068-0.062,0.102-0.156,0.102-0.28v-1.129h1.031v1.129
		c0,0.124,0.031,0.218,0.093,0.28c0.062,0.062,0.135,0.093,0.218,0.093s0.159-0.031,0.227-0.093c0.068-0.062,0.103-0.156,0.103-0.28
		v-1.129h1.031v1.218c0.006,0.13,0.089,0.195,0.249,0.195h0.417v1.014h-0.4V315.366z M412.538,311.704
		c0-0.148,0.052-0.275,0.155-0.383c0.104-0.106,0.229-0.159,0.378-0.159c0.154,0,0.283,0.053,0.387,0.159
		c0.104,0.107,0.155,0.234,0.155,0.383c0,0.147-0.052,0.273-0.155,0.378c-0.104,0.104-0.233,0.155-0.387,0.155
		c-0.148,0-0.274-0.052-0.378-0.155C412.589,311.978,412.538,311.852,412.538,311.704z M413.168,310.628
		c0-0.147,0.052-0.275,0.156-0.382c0.104-0.106,0.229-0.16,0.377-0.16s0.276,0.054,0.382,0.16c0.107,0.106,0.16,0.234,0.16,0.382
		c0,0.148-0.053,0.274-0.16,0.378c-0.106,0.104-0.234,0.156-0.382,0.156c-0.148,0-0.274-0.053-0.377-0.156
		C413.22,310.902,413.168,310.776,413.168,310.628z M413.791,311.704c0-0.148,0.05-0.275,0.151-0.383
		c0.101-0.106,0.228-0.159,0.382-0.159c0.148,0,0.275,0.053,0.382,0.159c0.107,0.107,0.16,0.234,0.16,0.383
		c0,0.147-0.053,0.273-0.16,0.378c-0.106,0.104-0.234,0.155-0.382,0.155c-0.154,0-0.282-0.052-0.382-0.155
		C413.841,311.978,413.791,311.852,413.791,311.704z"/>
	<path fill="#54B6E7" d="M416.111,316.69c0-0.148,0.052-0.274,0.156-0.378s0.229-0.155,0.377-0.155c0.154,0,0.283,0.052,0.387,0.155
		s0.156,0.229,0.156,0.378s-0.052,0.275-0.156,0.382s-0.232,0.16-0.387,0.16c-0.148,0-0.274-0.053-0.377-0.16
		C416.163,316.966,416.111,316.839,416.111,316.69z M416.369,314.415c0-0.023,0.024-0.04,0.071-0.049s0.095-0.014,0.142-0.014h0.996
		c0.208,0,0.311-0.106,0.311-0.32v-1.093h1.013v1.182c0,0.16-0.028,0.314-0.084,0.463c-0.056,0.148-0.133,0.279-0.231,0.396
		c-0.098,0.115-0.213,0.209-0.347,0.28c-0.133,0.07-0.28,0.106-0.44,0.106h-1.218c-0.047,0-0.095-0.006-0.142-0.018
		c-0.047-0.013-0.071-0.03-0.071-0.054L416.369,314.415L416.369,314.415z M417.364,316.69c0-0.148,0.05-0.274,0.151-0.378
		s0.228-0.155,0.382-0.155c0.148,0,0.276,0.052,0.382,0.155s0.16,0.229,0.16,0.378s-0.054,0.275-0.16,0.382
		c-0.106,0.107-0.234,0.16-0.382,0.16c-0.154,0-0.281-0.053-0.382-0.16C417.415,316.966,417.364,316.839,417.364,316.69z"/>
	<path fill="#54B6E7" d="M420.769,315.366c-0.338,0-0.585-0.105-0.742-0.315c-0.157-0.211-0.236-0.503-0.236-0.876v-3.378h1.014
		v3.183c0,0.166,0.023,0.27,0.071,0.311c0.047,0.042,0.148,0.062,0.302,0.062h0.151v1.014h-0.56V315.366z"/>
	<path fill="#54B6E7" d="M425.035,315.366c-0.172,0-0.32-0.025-0.445-0.076c-0.124-0.05-0.254-0.149-0.391-0.298
		c-0.137,0.119-0.292,0.211-0.467,0.276c-0.175,0.064-0.348,0.098-0.52,0.098s-0.338-0.033-0.498-0.098
		c-0.16-0.065-0.297-0.166-0.409-0.303c-0.083,0.154-0.204,0.26-0.364,0.315c-0.16,0.057-0.35,0.085-0.569,0.085h-0.044
		c-0.047,0-0.095-0.006-0.142-0.018c-0.047-0.013-0.071-0.03-0.071-0.054v-0.88c0-0.023,0.024-0.04,0.071-0.049
		s0.095-0.014,0.142-0.014h0.16c0.112,0,0.214-0.037,0.307-0.111c0.092-0.073,0.138-0.205,0.138-0.396
		c0-0.201,0.031-0.396,0.093-0.582c0.062-0.187,0.151-0.351,0.268-0.493c0.115-0.143,0.254-0.255,0.418-0.338
		c0.162-0.083,0.345-0.124,0.546-0.124c0.208,0,0.396,0.046,0.564,0.138s0.312,0.21,0.431,0.355
		c0.119,0.146,0.209,0.311,0.271,0.498c0.062,0.187,0.094,0.374,0.094,0.564c0,0.207,0.029,0.341,0.089,0.399
		c0.06,0.06,0.165,0.089,0.319,0.089h0.134v1.014h-0.125V315.366z M423.293,313.25c-0.137,0-0.252,0.047-0.348,0.139
		c-0.094,0.092-0.142,0.235-0.142,0.431c0,0.172,0.049,0.304,0.146,0.396s0.212,0.138,0.343,0.138c0.166,0,0.287-0.055,0.363-0.164
		c0.078-0.109,0.116-0.232,0.116-0.369s-0.04-0.265-0.12-0.387C423.572,313.312,423.453,313.25,423.293,313.25z"/>
	<path fill="#54B6E7" d="M424.945,314.415c0-0.023,0.024-0.04,0.072-0.049c0.047-0.009,0.094-0.014,0.142-0.014h0.995
		c0.208,0,0.312-0.106,0.312-0.32v-1.093h1.013v1.182c0,0.16-0.027,0.314-0.084,0.463s-0.133,0.279-0.23,0.396
		c-0.098,0.115-0.214,0.209-0.348,0.28c-0.133,0.07-0.279,0.106-0.439,0.106h-1.218c-0.048,0-0.095-0.006-0.142-0.018
		c-0.048-0.013-0.072-0.03-0.072-0.054v-0.879H424.945z M425.781,311.739c0-0.147,0.052-0.275,0.156-0.382
		c0.104-0.106,0.229-0.16,0.377-0.16s0.275,0.054,0.383,0.16c0.106,0.106,0.16,0.234,0.16,0.382c0,0.148-0.054,0.274-0.16,0.378
		c-0.107,0.104-0.234,0.155-0.383,0.155s-0.273-0.052-0.377-0.155S425.781,311.888,425.781,311.739z"/>
	<path fill="#54B6E7" d="M434.146,315.366c-0.172,0-0.308-0.033-0.409-0.098c-0.1-0.065-0.201-0.157-0.302-0.276
		c-0.106,0.125-0.245,0.222-0.413,0.289c-0.169,0.068-0.363,0.103-0.582,0.103c-0.901,0-1.352-0.456-1.352-1.369v-0.64
		c-0.248,0-0.373,0.148-0.373,0.444v3.2h-1.014v-3.085c0-0.497,0.123-0.884,0.369-1.159c0.246-0.276,0.609-0.414,1.089-0.414h1.12
		c0.498,0,0.871,0.138,1.119,0.414c0.25,0.275,0.374,0.683,0.374,1.222c0,0.137,0.028,0.229,0.085,0.28
		c0.056,0.05,0.152,0.075,0.288,0.075h0.187v1.014L434.146,315.366L434.146,315.366z M432.76,314.032
		c0-0.225-0.044-0.391-0.129-0.497c-0.086-0.106-0.263-0.16-0.529-0.16v0.657c0,0.226,0.115,0.338,0.346,0.338
		C432.655,314.37,432.76,314.258,432.76,314.032z"/>
	<path fill="#54B6E7" d="M436.616,315.366c-0.172,0-0.325-0.068-0.462-0.205c-0.065,0.065-0.137,0.116-0.213,0.151
		c-0.078,0.036-0.166,0.054-0.268,0.054h-1.342c-0.047,0-0.095-0.006-0.143-0.018c-0.047-0.013-0.07-0.03-0.07-0.054v-0.88
		c0-0.023,0.023-0.04,0.07-0.049c0.048-0.009,0.096-0.014,0.143-0.014h1.014c0.195,0,0.293-0.106,0.293-0.32v-1.093h1.014v1.093
		c0,0.214,0.1,0.32,0.302,0.32h0.16v1.014h-0.498V315.366z M434.555,311.739c0-0.147,0.051-0.275,0.155-0.382
		c0.104-0.106,0.229-0.16,0.378-0.16c0.154,0,0.283,0.054,0.387,0.16s0.155,0.234,0.155,0.382c0,0.148-0.052,0.274-0.155,0.378
		s-0.232,0.155-0.387,0.155c-0.148,0-0.274-0.052-0.378-0.155C434.605,312.014,434.555,311.888,434.555,311.739z M435.808,311.739
		c0-0.147,0.05-0.275,0.151-0.382c0.101-0.106,0.228-0.16,0.382-0.16c0.147,0,0.275,0.054,0.382,0.16
		c0.107,0.106,0.16,0.234,0.16,0.382c0,0.148-0.053,0.274-0.16,0.378c-0.106,0.104-0.234,0.155-0.382,0.155
		c-0.154,0-0.281-0.052-0.382-0.155C435.857,312.014,435.808,311.888,435.808,311.739z"/>
	<path fill="#54B6E7" d="M442.679,315.366c-0.284,0-0.489-0.074-0.613-0.223c-0.101,0.101-0.215,0.18-0.343,0.235
		c-0.127,0.057-0.277,0.085-0.449,0.085c-0.396,0-0.692-0.14-0.889-0.418c-0.112,0.137-0.247,0.24-0.404,0.312
		c-0.156,0.07-0.314,0.106-0.475,0.106c-0.172,0-0.332-0.036-0.48-0.106c-0.148-0.071-0.27-0.175-0.365-0.312
		c-0.082,0.095-0.191,0.172-0.328,0.231s-0.314,0.089-0.533,0.089h-0.685c-0.048,0-0.095-0.006-0.142-0.018
		c-0.048-0.013-0.072-0.03-0.072-0.054v-0.88c0-0.023,0.024-0.04,0.072-0.049c0.047-0.009,0.094-0.014,0.142-0.014h0.649
		c0.184,0,0.275-0.098,0.275-0.293v-1.12h1.021v1.129c0,0.124,0.033,0.218,0.098,0.28s0.14,0.093,0.223,0.093s0.16-0.031,0.23-0.093
		c0.072-0.062,0.107-0.156,0.107-0.28v-1.129h1.004v1.129c0,0.124,0.036,0.218,0.107,0.28c0.07,0.062,0.147,0.093,0.23,0.093
		s0.157-0.031,0.223-0.093c0.064-0.062,0.098-0.156,0.098-0.28v-1.129h1.021v1.218c0.006,0.13,0.096,0.195,0.268,0.195h0.444v1.014
		h-0.434V315.366z"/>
	<path fill="#54B6E7" d="M445.398,315.366c-0.172,0-0.326-0.068-0.463-0.205c-0.064,0.065-0.136,0.116-0.213,0.151
		c-0.077,0.036-0.166,0.054-0.267,0.054h-1.343c-0.047,0-0.094-0.006-0.142-0.018c-0.048-0.013-0.071-0.03-0.071-0.054v-0.88
		c0-0.023,0.023-0.04,0.071-0.049s0.095-0.014,0.142-0.014h1.014c0.195,0,0.293-0.106,0.293-0.32v-1.093h1.014v1.093
		c0,0.214,0.101,0.32,0.303,0.32h0.16v1.014h-0.498V315.366z M443.336,316.69c0-0.148,0.052-0.274,0.156-0.378
		s0.229-0.155,0.377-0.155c0.154,0,0.283,0.052,0.387,0.155s0.156,0.229,0.156,0.378s-0.053,0.275-0.156,0.382
		c-0.104,0.107-0.232,0.16-0.387,0.16c-0.148,0-0.273-0.053-0.377-0.16C443.388,316.966,443.336,316.839,443.336,316.69z
		 M444.59,316.69c0-0.148,0.05-0.274,0.15-0.378c0.102-0.104,0.229-0.155,0.383-0.155c0.147,0,0.275,0.052,0.382,0.155
		s0.16,0.229,0.16,0.378s-0.054,0.275-0.16,0.382c-0.106,0.107-0.234,0.16-0.382,0.16c-0.154,0-0.281-0.053-0.383-0.16
		C444.64,316.966,444.59,316.839,444.59,316.69z"/>
	<path fill="#54B6E7" d="M445.896,315.366c-0.048,0-0.096-0.006-0.143-0.018c-0.047-0.013-0.071-0.03-0.071-0.054v-0.88
		c0-0.023,0.024-0.04,0.071-0.049s0.095-0.014,0.143-0.014h0.889v1.014h-0.889V315.366z"/>
	<path fill="#54B6E7" d="M446.785,315.366c-0.048,0-0.096-0.006-0.143-0.018c-0.047-0.013-0.071-0.03-0.071-0.054v-0.88
		c0-0.023,0.024-0.04,0.071-0.049s0.095-0.014,0.143-0.014h0.889v1.014h-0.889V315.366z"/>
	<path fill="#54B6E7" d="M447.674,315.366c-0.048,0-0.096-0.006-0.143-0.018c-0.047-0.013-0.071-0.03-0.071-0.054v-0.88
		c0-0.023,0.024-0.04,0.071-0.049s0.095-0.014,0.143-0.014h0.889v1.014h-0.889V315.366z"/>
	<path fill="#54B6E7" d="M448.562,315.366c-0.047,0-0.095-0.006-0.143-0.018c-0.047-0.013-0.07-0.03-0.07-0.054v-0.88
		c0-0.023,0.023-0.04,0.07-0.049c0.048-0.009,0.096-0.014,0.143-0.014h0.889v1.014h-0.889V315.366z"/>
	<path fill="#54B6E7" d="M449.451,315.366c-0.047,0-0.095-0.006-0.143-0.018c-0.047-0.013-0.07-0.03-0.07-0.054v-0.88
		c0-0.023,0.023-0.04,0.07-0.049c0.048-0.009,0.096-0.014,0.143-0.014h0.889v1.014h-0.889V315.366z"/>
	<path fill="#54B6E7" d="M450.34,315.366c-0.047,0-0.095-0.006-0.143-0.018c-0.047-0.013-0.07-0.03-0.07-0.054v-0.88
		c0-0.023,0.023-0.04,0.07-0.049c0.048-0.009,0.096-0.014,0.143-0.014h0.889v1.014h-0.889V315.366z"/>
	<path fill="#54B6E7" d="M451.229,315.366c-0.047,0-0.095-0.006-0.143-0.018c-0.047-0.013-0.07-0.03-0.07-0.054v-0.88
		c0-0.023,0.023-0.04,0.07-0.049c0.048-0.009,0.096-0.014,0.143-0.014h0.889v1.014h-0.889V315.366z"/>
	<path fill="#54B6E7" d="M452.117,315.366c-0.047,0-0.095-0.006-0.143-0.018c-0.047-0.013-0.07-0.03-0.07-0.054v-0.88
		c0-0.023,0.023-0.04,0.07-0.049c0.048-0.009,0.096-0.014,0.143-0.014h0.889v1.014h-0.889V315.366z"/>
</g>
<g>
	<g>
		
			<path fill="none" stroke="#315485" stroke-width="1.7214" stroke-linecap="round" stroke-linejoin="round" stroke-miterlimit="10" d="
			M370.229,322.688l-44.35,0.041c-3.242-0.161-5.727-2.65-5.687-5.832c0.031-2.541,2.118-4.58,4.664-4.55
			c2.033,0.027,3.666,1.696,3.64,3.732c-0.021,1.628-1.356,2.931-2.984,2.911c-1.303-0.016-2.347-1.084-2.331-2.387"/>
		
			<line fill="none" stroke="#315485" stroke-width="1.1544" stroke-linecap="round" stroke-linejoin="round" stroke-miterlimit="10" x1="366.292" y1="325.788" x2="339.959" y2="325.817"/>
	</g>
	<g>
		
			<path fill="none" stroke="#315485" stroke-width="1.7214" stroke-linecap="round" stroke-linejoin="round" stroke-miterlimit="10" d="
			M417.556,322.688l44.35,0.041c3.242-0.161,5.727-2.65,5.687-5.832c-0.031-2.541-2.118-4.58-4.664-4.55
			c-2.033,0.027-3.666,1.696-3.64,3.732c0.021,1.628,1.356,2.931,2.984,2.911c1.304-0.016,2.347-1.084,2.332-2.387"/>
		
			<line fill="none" stroke="#315485" stroke-width="1.1544" stroke-linecap="round" stroke-linejoin="round" stroke-miterlimit="10" x1="420.509" y1="325.788" x2="447.826" y2="325.817"/>
	</g>
</g>
<g>
	<path fill="#D9B451" d="M332.141,297.297c0,0.805-0.262,1.432-0.786,1.884c-0.525,0.451-1.238,0.677-2.14,0.677h-2.304
		c-0.756,0-1.378-0.262-1.866-0.786c-0.488-0.524-0.732-1.116-0.732-1.774v-3.01h-5.012v3.047c0,1,0.152,1.957,0.457,2.872
		s0.744,1.713,1.317,2.396c0.573,0.683,1.281,1.225,2.122,1.628c0.841,0.402,1.798,0.604,2.871,0.604h3.695
		c0.975,0,1.902-0.183,2.78-0.549s1.658-0.866,2.341-1.5c0.682-0.634,1.225-1.396,1.628-2.286c0.402-0.891,0.604-1.847,0.604-2.872
		v-11.802h-4.975V297.297z"/>
	<path fill="#D9B451" d="M390.208,298.397c0,0.415-0.086,0.732-0.256,0.951c-0.171,0.22-0.464,0.329-0.878,0.329h-42.008h-0.841
		c-0.756,0-1.134-0.427-1.134-1.28v-12.572h-5.048v13.779c0,1.536,0.414,2.762,1.244,3.676c0.829,0.915,1.963,1.372,3.402,1.372
		h2.378h43.398c0.682,0,1.31-0.146,1.884-0.439c0.573-0.293,1.073-0.682,1.5-1.171c0.426-0.488,0.756-1.048,0.988-1.683
		c0.231-0.634,0.348-1.292,0.348-1.975v-5.048h-4.975v4.061H390.208z"/>
	<path fill="#D9B451" d="M392.695,290.349c0.633,0,1.17-0.22,1.609-0.659s0.658-0.975,0.658-1.61c0-0.634-0.219-1.17-0.658-1.61
		c-0.439-0.439-0.976-0.658-1.609-0.658c-0.634,0-1.171,0.22-1.61,0.658c-0.439,0.439-0.658,0.976-0.658,1.61
		c0,0.634,0.219,1.171,0.658,1.61C391.524,290.129,392.06,290.349,392.695,290.349z"/>
	<path fill="#D9B451" d="M387.5,290.349c0.61,0,1.14-0.22,1.591-0.659s0.677-0.975,0.677-1.61c0-0.634-0.226-1.17-0.677-1.61
		c-0.451-0.439-0.982-0.658-1.591-0.658c-0.634,0-1.171,0.22-1.61,0.658c-0.439,0.439-0.658,0.976-0.658,1.61
		c0,0.634,0.22,1.171,0.658,1.61C386.329,290.129,386.865,290.349,387.5,290.349z"/>
	<path fill="#D9B451" d="M415.409,293.95c-0.342-0.475-0.793-0.847-1.354-1.116c-0.561-0.268-1.256-0.402-2.085-0.402h-1.134v-0.293
		c0-0.561,0.061-0.957,0.183-1.189s0.316-0.348,0.585-0.348h4.353v-5.012h-4.426c-1.049,0-1.933,0.183-2.652,0.549
		s-1.305,0.848-1.756,1.445c-0.451,0.598-0.781,1.275-0.988,2.03c-0.208,0.756-0.311,1.536-0.311,2.341v4.865h5.158
		c0.268,0,0.463,0.11,0.585,0.329c0.122,0.22,0.183,0.439,0.183,0.659c0,0.561-0.342,1.043-1.024,1.445
		c-0.683,0.402-1.549,0.603-2.597,0.603h-2.926c-0.756,0-1.378-0.262-1.866-0.786c-0.488-0.524-0.732-1.116-0.732-1.774v-3.01
		h-5.012v3.047c0,1,0.152,1.957,0.457,2.872s0.744,1.713,1.317,2.396c0.573,0.683,1.281,1.225,2.122,1.628
		c0.841,0.402,1.798,0.604,2.871,0.604h5.268c1.024,0,1.951-0.177,2.78-0.53c0.829-0.354,1.542-0.848,2.14-1.482
		c0.597-0.634,1.055-1.39,1.371-2.268c0.317-0.878,0.476-1.853,0.476-2.926c0-0.707-0.08-1.378-0.238-2.012
		C416,294.981,415.75,294.426,415.409,293.95z"/>
	<path fill="#D9B451" d="M425.432,285.409c-0.976,0-1.842,0.177-2.597,0.53c-0.756,0.354-1.396,0.848-1.92,1.482
		c-0.525,0.634-0.927,1.39-1.207,2.268s-0.421,1.853-0.421,2.926c0,1.097,0.195,2.018,0.585,2.762
		c0.39,0.744,0.909,1.354,1.555,1.829s1.402,0.823,2.268,1.042c0.865,0.22,1.774,0.354,2.725,0.402
		c-0.415,0.756-0.964,0.756-1.646,1c-0.683,0.243-1.415,0.366-2.195,0.366h-3.292l0.695,4.938h3c1.121,0,2.158-0.219,3.109-0.658
		c0.951-0.439,1.774-1.019,2.469-1.738c0.695-0.72,1.237-1.549,1.628-2.488c0.39-0.939,0.585-1.408,0.585-2.408v-4.646
		c0-2.658-0.482-4.591-1.445-5.798C428.364,286.012,427.065,285.409,425.432,285.409z M426.419,293.676h-0.366
		c-0.854,0-1.463-0.189-1.829-0.567s-0.548-0.92-0.548-1.628c0-0.463,0.097-0.865,0.293-1.207c0.195-0.341,0.548-0.512,1.061-0.512
		c0.341,0,0.658,0.141,0.951,0.421c0.293,0.281,0.439,0.738,0.439,1.372L426.419,293.676L426.419,293.676z"/>
	<path fill="#D9B451" d="M450.999,293.95c-0.342-0.475-0.793-0.847-1.354-1.116c-0.561-0.268-1.256-0.402-2.085-0.402h-1.134v-0.293
		c0-0.561,0.061-0.957,0.183-1.189s0.316-0.348,0.585-0.348h4.353v-5.012h-4.426c-1.049,0-1.933,0.183-2.652,0.549
		s-1.305,0.848-1.756,1.445c-0.451,0.598-0.781,1.275-0.988,2.03c-0.208,0.756-0.311,1.536-0.311,2.341v4.865h5.158
		c0.268,0,0.463,0.11,0.585,0.329c0.122,0.22,0.183,0.439,0.183,0.659c0,0.561-0.342,1.043-1.024,1.445
		c-0.683,0.402-1.549,0.603-2.597,0.603h-2.927c-0.756,0-1.378-0.262-1.866-0.786c-0.488-0.524-0.732-1.116-0.732-1.774v-3.01
		h-5.011v3.047c0,1,0.152,1.957,0.457,2.872s0.744,1.713,1.317,2.396c0.573,0.683,1.281,1.225,2.122,1.628
		c0.841,0.402,1.798,0.604,2.871,0.604h5.268c1.024,0,1.951-0.177,2.78-0.53c0.829-0.354,1.542-0.848,2.14-1.482
		c0.597-0.634,1.054-1.39,1.371-2.268c0.317-0.878,0.476-1.853,0.476-2.926c0-0.707-0.08-1.378-0.238-2.012
		C451.59,294.981,451.34,294.426,450.999,293.95z"/>
	<path fill="#D9B451" d="M468.521,293.195c-0.269-0.719-0.671-1.359-1.207-1.921l-6.292-5.694l-3.512,3.585l5.231,4.633
		c0.122,0.122,0.183,0.269,0.183,0.439c0,0.122-0.043,0.226-0.128,0.311c-0.086,0.086-0.189,0.128-0.311,0.128h-7.975l0.658,4.975
		h8.816c0.804,0,1.512-0.116,2.122-0.348c0.609-0.232,1.121-0.549,1.536-0.951c0.414-0.402,0.732-0.872,0.951-1.408
		c0.219-0.536,0.329-1.109,0.329-1.719C468.923,294.591,468.789,293.914,468.521,293.195z"/>
</g>
<g>
	<g>
		<path fill="#D9B451" d="M507.391,287.419c5.14-3.146,11.648-0.716,12.619-0.278l8.124,26.275l-9.327,13.039l-5.936-21.301
			l1.911-8.759l-3.359,6.905l-10.848,22.06c-6.093,2.818-13.792-0.071-13.792-0.071l-12.935-27.867
			c0.457-7.517,5.447-11.45,5.447-11.45l25.874,0.142l-7.733,11.654l-10.496-0.01l0.005,0.011l-5.705,0.616l6.624,1.451
			l6.212,15.437L507.391,287.419z"/>
		<path fill="none" stroke="#D9B451" stroke-width="0.6833" stroke-miterlimit="10" d="M507.391,287.419
			c5.14-3.146,11.648-0.716,12.619-0.278l8.124,26.275l-9.327,13.039l-5.936-21.301l1.911-8.759l-3.359,6.905l-10.848,22.06
			c-6.093,2.818-13.792-0.071-13.792-0.071l-12.935-27.867c0.457-7.517,5.447-11.45,5.447-11.45l25.874,0.142l-7.733,11.654
			l-10.496-0.01l0.005,0.011l-5.705,0.616l6.624,1.451l6.212,15.437L507.391,287.419z"/>
	</g>
	<g>
		<g>
			<defs>
				<path id="SVGID_1_" d="M507.182,289.178c4.841-2.589,10.405-0.589,11.319-0.229l7.652,21.625l-7.085,12.217l-6.724-19.017
					l1.8-7.209l-3.164,5.683l-11.351,19.641c-5.739,2.319-11.29-0.058-11.29-0.058l-13.317-24.421
					c0.431-6.187,5.131-9.423,5.131-9.423l22.67,0.117l-5.584,9.592l-9.319-0.008l0.004,0.009l-5.374,0.002l6.239,1.699
					l5.851,12.705L507.182,289.178z"/>
			</defs>
			<clipPath id="SVGID_2_">
				<use xlink:href="#SVGID_1_"  overflow="visible"/>
			</clipPath>
			<polygon clip-path="url(#SVGID_2_)" fill="#54B6E7" stroke="#2E67B2" stroke-width="0.6016" stroke-miterlimit="10" points="
				526.832,311.08 518.167,282.042 512.249,303.921 			"/>
		</g>
		<g>
			<defs>
				<path id="SVGID_3_" d="M507.182,289.178c4.841-2.589,10.405-0.589,11.319-0.229l7.652,21.625l-7.085,12.217l-6.724-19.017
					l1.8-7.209l-3.164,5.683l-11.351,19.641c-5.739,2.319-11.29-0.058-11.29-0.058l-13.317-24.421
					c0.431-6.187,5.131-9.423,5.131-9.423l22.67,0.117l-5.584,9.592l-9.319-0.008l0.004,0.009l-5.374,0.002l6.239,1.699
					l5.851,12.705L507.182,289.178z"/>
			</defs>
			<clipPath id="SVGID_4_">
				<use xlink:href="#SVGID_3_"  overflow="visible"/>
			</clipPath>
			<polygon clip-path="url(#SVGID_4_)" fill="#47A2DA" stroke="#2E67B2" stroke-width="0.6016" stroke-miterlimit="10" points="
				506.271,287.873 512.206,303.756 518.124,281.876 			"/>
		</g>
		<g>
			<defs>
				<path id="SVGID_5_" d="M507.182,289.178c4.841-2.589,10.405-0.589,11.319-0.229l7.652,21.625l-7.085,12.217l-6.724-19.017
					l1.8-7.209l-3.164,5.683l-11.351,19.641c-5.739,2.319-11.29-0.058-11.29-0.058l-13.317-24.421
					c0.431-6.187,5.131-9.423,5.131-9.423l22.67,0.117l-5.584,9.592l-9.319-0.008l0.004,0.009l-5.374,0.002l6.239,1.699
					l5.851,12.705L507.182,289.178z"/>
			</defs>
			<clipPath id="SVGID_6_">
				<use xlink:href="#SVGID_5_"  overflow="visible"/>
			</clipPath>
			<polygon clip-path="url(#SVGID_6_)" fill="#0F88CA" stroke="#2E67B2" stroke-width="0.6016" stroke-miterlimit="10" points="
				474.206,297.995 474.082,322.249 488.396,297.995 			"/>
		</g>
		<g>
			<defs>
				<path id="SVGID_7_" d="M507.182,289.178c4.841-2.589,10.405-0.589,11.319-0.229l7.652,21.625l-7.085,12.217l-6.724-19.017
					l1.8-7.209l-3.164,5.683l-11.351,19.641c-5.739,2.319-11.29-0.058-11.29-0.058l-13.317-24.421
					c0.431-6.187,5.131-9.423,5.131-9.423l22.67,0.117l-5.584,9.592l-9.319-0.008l0.004,0.009l-5.374,0.002l6.239,1.699
					l5.851,12.705L507.182,289.178z"/>
			</defs>
			<clipPath id="SVGID_8_">
				<use xlink:href="#SVGID_7_"  overflow="visible"/>
			</clipPath>
			<polygon clip-path="url(#SVGID_8_)" fill="#47A2DA" stroke="#2E67B2" stroke-width="0.6016" stroke-miterlimit="10" points="
				488.36,322.249 488.484,297.995 474.17,322.249 			"/>
		</g>
		<g>
			<defs>
				<path id="SVGID_9_" d="M507.182,289.178c4.841-2.589,10.405-0.589,11.319-0.229l7.652,21.625l-7.085,12.217l-6.724-19.017
					l1.8-7.209l-3.164,5.683l-11.351,19.641c-5.739,2.319-11.29-0.058-11.29-0.058l-13.317-24.421
					c0.431-6.187,5.131-9.423,5.131-9.423l22.67,0.117l-5.584,9.592l-9.319-0.008l0.004,0.009l-5.374,0.002l6.239,1.699
					l5.851,12.705L507.182,289.178z"/>
			</defs>
			<clipPath id="SVGID_10_">
				<use xlink:href="#SVGID_9_"  overflow="visible"/>
			</clipPath>
			<polygon clip-path="url(#SVGID_10_)" fill="#9DDCF9" stroke="#2E67B2" stroke-width="0.6016" stroke-miterlimit="10" points="
				488.615,323.32 488.485,295.002 503.431,323.32 			"/>
		</g>
		<g>
			<defs>
				<path id="SVGID_11_" d="M507.182,289.178c4.841-2.589,10.405-0.589,11.319-0.229l7.652,21.625l-7.085,12.217l-6.724-19.017
					l1.8-7.209l-3.164,5.683l-11.351,19.641c-5.739,2.319-11.29-0.058-11.29-0.058l-13.317-24.421
					c0.431-6.187,5.131-9.423,5.131-9.423l22.67,0.117l-5.584,9.592l-9.319-0.008l0.004,0.009l-5.374,0.002l6.239,1.699
					l5.851,12.705L507.182,289.178z"/>
			</defs>
			<clipPath id="SVGID_12_">
				<use xlink:href="#SVGID_11_"  overflow="visible"/>
			</clipPath>
			<polygon clip-path="url(#SVGID_12_)" fill="#54B6E7" stroke="#2E67B2" stroke-width="0.6016" stroke-miterlimit="10" points="
				506.742,289.663 503.523,323.32 488.577,295.002 			"/>
		</g>
		<g>
			<defs>
				<path id="SVGID_13_" d="M507.182,289.178c4.841-2.589,10.405-0.589,11.319-0.229l7.652,21.625l-7.085,12.217l-6.724-19.017
					l1.8-7.209l-3.164,5.683l-11.351,19.641c-5.739,2.319-11.29-0.058-11.29-0.058l-13.317-24.421
					c0.431-6.187,5.131-9.423,5.131-9.423l22.67,0.117l-5.584,9.592l-9.319-0.008l0.004,0.009l-5.374,0.002l6.239,1.699
					l5.851,12.705L507.182,289.178z"/>
			</defs>
			<clipPath id="SVGID_14_">
				<use xlink:href="#SVGID_13_"  overflow="visible"/>
			</clipPath>
			<polygon clip-path="url(#SVGID_14_)" fill="#0F88CA" stroke="#2E67B2" stroke-width="0.6016" stroke-miterlimit="10" points="
				511.662,302.453 506.657,289.061 504.574,315.201 			"/>
		</g>
		<g>
			<defs>
				<path id="SVGID_15_" d="M507.182,289.178c4.841-2.589,10.405-0.589,11.319-0.229l7.652,21.625l-7.085,12.217l-6.724-19.017
					l1.8-7.209l-3.164,5.683l-11.351,19.641c-5.739,2.319-11.29-0.058-11.29-0.058l-13.317-24.421
					c0.431-6.187,5.131-9.423,5.131-9.423l22.67,0.117l-5.584,9.592l-9.319-0.008l0.004,0.009l-5.374,0.002l6.239,1.699
					l5.851,12.705L507.182,289.178z"/>
			</defs>
			<clipPath id="SVGID_16_">
				<use xlink:href="#SVGID_15_"  overflow="visible"/>
			</clipPath>
			<polygon clip-path="url(#SVGID_16_)" fill="#9DDCF9" stroke="#2E67B2" stroke-width="0.6016" stroke-miterlimit="10" points="
				518.632,324.249 527.398,311.524 512.18,304.045 			"/>
		</g>
		<g>
			<defs>
				<path id="SVGID_17_" d="M507.182,289.178c4.841-2.589,10.405-0.589,11.319-0.229l7.652,21.625l-7.085,12.217l-6.724-19.017
					l1.8-7.209l-3.164,5.683l-11.351,19.641c-5.739,2.319-11.29-0.058-11.29-0.058l-13.317-24.421
					c0.431-6.187,5.131-9.423,5.131-9.423l22.67,0.117l-5.584,9.592l-9.319-0.008l0.004,0.009l-5.374,0.002l6.239,1.699
					l5.851,12.705L507.182,289.178z"/>
			</defs>
			<clipPath id="SVGID_18_">
				<use xlink:href="#SVGID_17_"  overflow="visible"/>
			</clipPath>
			<polygon clip-path="url(#SVGID_18_)" fill="#9DDCF9" stroke="#2E67B2" stroke-width="0.6016" stroke-miterlimit="10" points="
				503.669,287.469 478.791,287.341 497.541,297.995 			"/>
		</g>
		<g>
			<defs>
				<path id="SVGID_19_" d="M507.182,289.178c4.841-2.589,10.405-0.589,11.319-0.229l7.652,21.625l-7.085,12.217l-6.724-19.017
					l1.8-7.209l-3.164,5.683l-11.351,19.641c-5.739,2.319-11.29-0.058-11.29-0.058l-13.317-24.421
					c0.431-6.187,5.131-9.423,5.131-9.423l22.67,0.117l-5.584,9.592l-9.319-0.008l0.004,0.009l-5.374,0.002l6.239,1.699
					l5.851,12.705L507.182,289.178z"/>
			</defs>
			<clipPath id="SVGID_20_">
				<use xlink:href="#SVGID_19_"  overflow="visible"/>
			</clipPath>
			<polygon clip-path="url(#SVGID_20_)" fill="#54B6E7" stroke="#2E67B2" stroke-width="0.6016" stroke-miterlimit="10" points="
				472.5,297.867 497.378,297.995 478.628,287.341 			"/>
		</g>
	</g>
	<path fill="none" stroke="#D9B451" stroke-width="1.2032" stroke-miterlimit="10" d="M507.182,289.178
		c4.841-2.589,10.405-0.589,11.319-0.229l7.652,21.625l-7.085,12.217l-6.724-19.017l1.8-7.209l-3.164,5.683l-11.351,19.641
		c-5.739,2.319-11.29-0.058-11.29-0.058l-13.317-24.421c0.431-6.187,5.131-9.423,5.131-9.423l22.67,0.117l-5.584,9.592l-9.319-0.008
		l0.004,0.009l-5.374,0.615l6.239,1.086l5.851,12.705L507.182,289.178z"/>
	<path fill="none" stroke="#2E67B2" stroke-width="1.2032" stroke-miterlimit="10" d="M507.182,289.178
		c4.841-2.589,10.405-0.589,11.319-0.229l7.652,21.625l-7.085,12.217l-6.724-19.017l1.8-7.209l-3.164,5.683l-11.351,19.641
		c-5.739,2.319-11.29-0.058-11.29-0.058l-13.317-24.421c0.431-6.187,5.131-9.423,5.131-9.423l22.67,0.117l-5.584,9.592l-9.319-0.008
		l0.004,0.009l-5.374,0.615l6.239,1.086l5.851,12.705L507.182,289.178z"/>
</g>
<g>
	<path fill="#315485" d="M421.922,277.429c-2.731-6.449-6.831-6.157-8.329-6.091c-1.501,0.066-3.047-0.448-3.404-1.657
		c-0.359-1.209,1.301-2.54,4.208-2.328C417.307,267.565,420.758,269.412,421.922,277.429z"/>
	<path fill="#315485" d="M422.3,260.535c-2.213,0-3.602,3.065-2.528,6.1c1.075,3.035,2.195,5.106,2.528,10.933
		c0.333-5.827,1.452-7.898,2.527-10.933S424.514,260.535,422.3,260.535z"/>
	<path fill="#315485" d="M422.678,277.429c2.733-6.449,6.831-6.157,8.33-6.091s3.046-0.448,3.404-1.657s-1.301-2.54-4.21-2.328
		C427.293,267.565,423.843,269.412,422.678,277.429z"/>
</g>
</svg>
