<?xml version="1.0" encoding="utf-8"?>
<!-- Generator: Adobe Illustrator 17.0.0, SVG Export Plug-In . SVG Version: 6.00 Build 0)  -->
<!DOCTYPE svg PUBLIC "-//W3C//DTD SVG 1.1//EN" "http://www.w3.org/Graphics/SVG/1.1/DTD/svg11.dtd">
<svg version="1.1" id="Layer_1" xmlns="http://www.w3.org/2000/svg" xmlns:xlink="http://www.w3.org/1999/xlink" x="0px" y="0px"
	 width="225px" height="56px" viewBox="0 0 225 56" enable-background="new 0 0 225 56" xml:space="preserve">
<g>
	<path fill="#54B6E7" d="M20.198,20.101c0,0.805-0.262,1.432-0.786,1.884c-0.525,0.451-1.238,0.677-2.14,0.677h-2.304
		c-0.756,0-1.378-0.262-1.866-0.786c-0.488-0.524-0.732-1.116-0.732-1.774v-3.01H7.358v3.047c0,1,0.152,1.957,0.457,2.872
		c0.305,0.915,0.744,1.713,1.317,2.396c0.573,0.683,1.281,1.225,2.122,1.628c0.841,0.402,1.798,0.604,2.871,0.604h3.695
		c0.975,0,1.902-0.183,2.78-0.549c0.878-0.366,1.658-0.866,2.341-1.5c0.682-0.634,1.225-1.396,1.628-2.286
		c0.402-0.891,0.604-1.847,0.604-2.872V8.629h-4.975V20.101z"/>
	<path fill="#54B6E7" d="M78.264,21.201c0,0.415-0.086,0.732-0.256,0.951c-0.171,0.22-0.464,0.329-0.878,0.329H35.122h-0.841
		c-0.756,0-1.134-0.427-1.134-1.28V8.629h-5.048v13.779c0,1.536,0.414,2.762,1.244,3.676c0.829,0.915,1.963,1.372,3.402,1.372h2.378
		H78.52c0.682,0,1.31-0.146,1.884-0.439c0.573-0.293,1.073-0.682,1.5-1.17c0.426-0.488,0.756-1.048,0.988-1.683
		c0.231-0.634,0.348-1.292,0.348-1.975V17.14h-4.975V21.201z"/>
	<path fill="#54B6E7" d="M80.751,13.152c0.633,0,1.17-0.22,1.609-0.659c0.439-0.439,0.658-0.975,0.658-1.61
		c0-0.634-0.219-1.17-0.658-1.61c-0.439-0.439-0.976-0.658-1.609-0.658c-0.634,0-1.171,0.22-1.61,0.658
		c-0.439,0.439-0.658,0.976-0.658,1.61c0,0.634,0.219,1.171,0.658,1.61C79.58,12.933,80.117,13.152,80.751,13.152z"/>
	<path fill="#54B6E7" d="M75.556,13.152c0.61,0,1.14-0.22,1.591-0.659c0.451-0.439,0.677-0.975,0.677-1.61
		c0-0.634-0.226-1.17-0.677-1.61c-0.451-0.439-0.982-0.658-1.591-0.658c-0.634,0-1.171,0.22-1.61,0.658
		c-0.439,0.439-0.658,0.976-0.658,1.61c0,0.634,0.22,1.171,0.658,1.61C74.386,12.933,74.922,13.152,75.556,13.152z"/>
	<path fill="#54B6E7" d="M103.465,16.754c-0.342-0.475-0.793-0.847-1.354-1.116c-0.561-0.268-1.256-0.402-2.085-0.402h-1.134v-0.293
		c0-0.561,0.061-0.957,0.183-1.189c0.122-0.232,0.316-0.347,0.585-0.347h4.353V8.395h-4.426c-1.049,0-1.933,0.183-2.652,0.549
		c-0.719,0.366-1.305,0.848-1.756,1.445c-0.451,0.598-0.781,1.275-0.988,2.03c-0.208,0.756-0.311,1.536-0.311,2.341v4.865h5.158
		c0.268,0,0.463,0.11,0.585,0.329c0.122,0.22,0.183,0.439,0.183,0.659c0,0.561-0.342,1.043-1.024,1.445
		c-0.683,0.402-1.549,0.603-2.597,0.603h-2.926c-0.756,0-1.378-0.262-1.866-0.786c-0.488-0.524-0.732-1.116-0.732-1.774v-3.01H85.65
		v3.047c0,1,0.152,1.957,0.457,2.872c0.305,0.915,0.744,1.713,1.317,2.396c0.573,0.683,1.281,1.225,2.122,1.628
		c0.841,0.402,1.798,0.604,2.871,0.604h5.268c1.024,0,1.951-0.177,2.78-0.53c0.829-0.354,1.542-0.848,2.14-1.482
		c0.597-0.634,1.055-1.39,1.371-2.268c0.317-0.878,0.476-1.853,0.476-2.926c0-0.707-0.08-1.378-0.238-2.012
		C104.056,17.784,103.806,17.229,103.465,16.754z"/>
	<path fill="#54B6E7" d="M113.488,8.212c-0.976,0-1.842,0.177-2.597,0.53c-0.756,0.354-1.396,0.848-1.92,1.482
		c-0.525,0.634-0.927,1.39-1.207,2.268c-0.28,0.878-0.421,1.853-0.421,2.926c0,1.097,0.195,2.018,0.585,2.762
		c0.39,0.744,0.908,1.354,1.555,1.829c0.646,0.475,1.402,0.823,2.268,1.042c0.865,0.22,1.774,0.354,2.725,0.402
		c-0.415,0.756-0.964,0.756-1.646,1c-0.683,0.243-1.415,0.366-2.195,0.366h-3.292l0.695,4.938h3c1.121,0,2.158-0.219,3.109-0.658
		s1.774-1.019,2.469-1.738c0.695-0.72,1.237-1.549,1.628-2.488c0.39-0.939,0.585-1.408,0.585-2.408v-4.646
		c0-2.658-0.482-4.591-1.445-5.798C116.421,8.816,115.122,8.212,113.488,8.212z M114.476,16.479h-0.366
		c-0.854,0-1.463-0.189-1.829-0.567c-0.366-0.378-0.548-0.92-0.548-1.628c0-0.463,0.097-0.865,0.293-1.207
		c0.195-0.341,0.548-0.512,1.061-0.512c0.341,0,0.658,0.141,0.951,0.421c0.293,0.281,0.439,0.738,0.439,1.372V16.479z"/>
	<path fill="#54B6E7" d="M139.056,16.754c-0.342-0.475-0.793-0.847-1.354-1.116c-0.561-0.268-1.256-0.402-2.085-0.402h-1.134v-0.293
		c0-0.561,0.061-0.957,0.183-1.189c0.122-0.232,0.316-0.347,0.585-0.347h4.353V8.395h-4.426c-1.049,0-1.933,0.183-2.652,0.549
		c-0.719,0.366-1.305,0.848-1.756,1.445c-0.451,0.598-0.781,1.275-0.988,2.03c-0.208,0.756-0.311,1.536-0.311,2.341v4.865h5.158
		c0.268,0,0.463,0.11,0.585,0.329c0.122,0.22,0.183,0.439,0.183,0.659c0,0.561-0.342,1.043-1.024,1.445
		c-0.683,0.402-1.549,0.603-2.597,0.603h-2.926c-0.756,0-1.378-0.262-1.866-0.786c-0.488-0.524-0.732-1.116-0.732-1.774v-3.01
		h-5.011v3.047c0,1,0.152,1.957,0.457,2.872c0.305,0.915,0.744,1.713,1.317,2.396c0.573,0.683,1.281,1.225,2.122,1.628
		c0.841,0.402,1.798,0.604,2.871,0.604h5.268c1.024,0,1.951-0.177,2.78-0.53c0.829-0.354,1.542-0.848,2.14-1.482
		c0.597-0.634,1.054-1.39,1.371-2.268c0.317-0.878,0.476-1.853,0.476-2.926c0-0.707-0.08-1.378-0.238-2.012
		C139.647,17.784,139.397,17.229,139.056,16.754z"/>
	<path fill="#54B6E7" d="M156.577,15.998c-0.269-0.719-0.671-1.359-1.207-1.921l-6.292-5.694l-3.512,3.585l5.231,4.633
		c0.122,0.122,0.183,0.269,0.183,0.439c0,0.122-0.043,0.226-0.128,0.311c-0.086,0.086-0.189,0.128-0.311,0.128h-7.975l0.658,4.975
		h8.816c0.804,0,1.512-0.115,2.122-0.347c0.609-0.232,1.121-0.549,1.536-0.951c0.414-0.402,0.732-0.872,0.951-1.408
		c0.219-0.536,0.329-1.109,0.329-1.719C156.98,17.394,156.845,16.718,156.577,15.998z"/>
</g>
<g>
	<g>
		<path fill-rule="evenodd" clip-rule="evenodd" fill="#D9B451" d="M197.447,8.222c5.14-3.146,11.648-0.716,12.619-0.278
			l8.124,26.275l-9.327,13.039l-5.936-21.301l1.912-8.759l-3.359,6.905l-10.848,22.06c-6.093,2.818-13.792-0.071-13.792-0.071
			l-12.935-27.867c0.457-7.517,5.447-11.45,5.447-11.45l25.874,0.142l-7.733,11.654l-10.496-0.01l0.005,0.011l-5.705,0.616
			l6.624,1.451l6.212,15.437L197.447,8.222z"/>
		<path fill="none" stroke="#D9B451" stroke-width="0.6833" stroke-miterlimit="10" d="M197.447,8.222
			c5.14-3.146,11.648-0.716,12.619-0.278l8.124,26.275l-9.327,13.039l-5.936-21.301l1.912-8.759l-3.359,6.905l-10.848,22.06
			c-6.093,2.818-13.792-0.071-13.792-0.071l-12.935-27.867c0.457-7.517,5.447-11.45,5.447-11.45l25.874,0.142l-7.733,11.654
			l-10.496-0.01l0.005,0.011l-5.705,0.616l6.624,1.451l6.212,15.437L197.447,8.222z"/>
	</g>
	<g>
		<defs>
			<path id="SVGID_1_" d="M197.239,9.982c4.841-2.589,10.405-0.589,11.319-0.229l7.652,21.625l-7.085,12.217L202.4,24.578l1.8-7.209
				l-3.164,5.683l-11.351,19.641c-5.739,2.319-11.291-0.058-11.291-0.058l-13.317-24.421c0.431-6.187,5.131-9.423,5.131-9.423
				l22.67,0.117l-5.584,9.592l-9.319-0.008l0.004,0.009l-5.374,0.002l6.239,1.699l5.851,12.705L197.239,9.982z"/>
		</defs>
		<clipPath id="SVGID_2_">
			<use xlink:href="#SVGID_1_"  overflow="visible"/>
		</clipPath>
		
			<polygon clip-path="url(#SVGID_2_)" fill-rule="evenodd" clip-rule="evenodd" fill="#54B6E7" stroke="#2E67B2" stroke-width="0.6016" stroke-miterlimit="10" points="
			216.889,31.883 208.223,2.846 202.305,24.725 		"/>
		
			<polygon clip-path="url(#SVGID_2_)" fill-rule="evenodd" clip-rule="evenodd" fill="#47A2DA" stroke="#2E67B2" stroke-width="0.6016" stroke-miterlimit="10" points="
			196.327,8.676 202.262,24.559 208.18,2.68 		"/>
		
			<polygon clip-path="url(#SVGID_2_)" fill-rule="evenodd" clip-rule="evenodd" fill="#0F88CA" stroke="#2E67B2" stroke-width="0.6016" stroke-miterlimit="10" points="
			164.263,18.798 164.138,43.053 178.452,18.798 		"/>
		
			<polygon clip-path="url(#SVGID_2_)" fill-rule="evenodd" clip-rule="evenodd" fill="#47A2DA" stroke="#2E67B2" stroke-width="0.6016" stroke-miterlimit="10" points="
			178.416,43.053 178.541,18.798 164.227,43.053 		"/>
		
			<polygon clip-path="url(#SVGID_2_)" fill-rule="evenodd" clip-rule="evenodd" fill="#9DDCF9" stroke="#2E67B2" stroke-width="0.6016" stroke-miterlimit="10" points="
			178.671,44.124 178.541,15.806 193.487,44.124 		"/>
		
			<polygon clip-path="url(#SVGID_2_)" fill-rule="evenodd" clip-rule="evenodd" fill="#54B6E7" stroke="#2E67B2" stroke-width="0.6016" stroke-miterlimit="10" points="
			196.799,10.466 193.58,44.124 178.634,15.806 		"/>
		
			<polygon clip-path="url(#SVGID_2_)" fill-rule="evenodd" clip-rule="evenodd" fill="#0F88CA" stroke="#2E67B2" stroke-width="0.6016" stroke-miterlimit="10" points="
			201.719,23.257 196.714,9.864 194.63,36.004 		"/>
		
			<polygon clip-path="url(#SVGID_2_)" fill-rule="evenodd" clip-rule="evenodd" fill="#9DDCF9" stroke="#2E67B2" stroke-width="0.6016" stroke-miterlimit="10" points="
			208.688,45.053 217.455,32.328 202.237,24.848 		"/>
		
			<polygon clip-path="url(#SVGID_2_)" fill-rule="evenodd" clip-rule="evenodd" fill="#9DDCF9" stroke="#2E67B2" stroke-width="0.6016" stroke-miterlimit="10" points="
			193.725,8.272 168.847,8.144 187.598,18.798 		"/>
		
			<polygon clip-path="url(#SVGID_2_)" fill-rule="evenodd" clip-rule="evenodd" fill="#54B6E7" stroke="#2E67B2" stroke-width="0.6016" stroke-miterlimit="10" points="
			162.557,18.67 187.435,18.798 168.684,8.144 		"/>
	</g>
	<path fill-rule="evenodd" clip-rule="evenodd" fill="none" stroke="#D9B451" stroke-width="1.2032" stroke-miterlimit="10" d="
		M197.239,9.982c4.841-2.589,10.405-0.589,11.319-0.229l7.652,21.625l-7.085,12.217L202.4,24.578l1.8-7.209l-3.164,5.683
		l-11.351,19.641c-5.739,2.319-11.291-0.058-11.291-0.058l-13.317-24.421c0.431-6.187,5.131-9.423,5.131-9.423l22.67,0.117
		l-5.584,9.592l-9.319-0.008l0.004,0.009l-5.374,0.615l6.239,1.086l5.851,12.705L197.239,9.982z"/>
	<path fill-rule="evenodd" clip-rule="evenodd" fill="none" stroke="#2E67B2" stroke-width="1.2032" stroke-miterlimit="10" d="
		M197.239,9.982c4.841-2.589,10.405-0.589,11.319-0.229l7.652,21.625l-7.085,12.217L202.4,24.578l1.8-7.209l-3.164,5.683
		l-11.351,19.641c-5.739,2.319-11.291-0.058-11.291-0.058l-13.317-24.421c0.431-6.187,5.131-9.423,5.131-9.423l22.67,0.117
		l-5.584,9.592l-9.319-0.008l0.004,0.009l-5.374,0.615l6.239,1.086l5.851,12.705L197.239,9.982z"/>
</g>
<g>
	<path fill="#D9B451" d="M8.107,36.595h4.066c0.802,0,1.449,0.108,1.942,0.326c0.493,0.217,0.901,0.529,1.224,0.937
		c0.322,0.406,0.556,0.88,0.701,1.419c0.145,0.54,0.217,1.112,0.217,1.716c0,0.947-0.107,1.681-0.323,2.202
		c-0.215,0.522-0.514,0.959-0.897,1.312s-0.793,0.587-1.232,0.704c-0.6,0.161-1.144,0.241-1.631,0.241H8.107V36.595z M10.844,38.601
		v4.839h0.671c0.572,0,0.979-0.063,1.22-0.19s0.431-0.349,0.568-0.664c0.137-0.316,0.206-0.829,0.206-1.538
		c0-0.938-0.153-1.581-0.459-1.927c-0.306-0.347-0.813-0.52-1.522-0.52H10.844z"/>
	<path fill="#D9B451" d="M25.063,36.595h2.861l1.994,6.373l1.968-6.373h2.778l-3.289,8.856h-2.966L25.063,36.595z"/>
	<path fill="#D9B451" d="M43.597,36.595h8.319v2.187h-2.791v6.67h-2.737v-6.67h-2.791V36.595z"/>
	<path fill="#D9B451" d="M66.42,43.989h-3.107l-0.432,1.462h-2.794l3.329-8.856h2.985l3.328,8.856h-2.866L66.42,43.989z
		 M65.853,42.074l-0.978-3.185l-0.968,3.185H65.853z"/>
	<path fill="#D9B451" d="M79.26,36.595h2.737v6.676h4.271v2.181H79.26V36.595z"/>
	<path fill="#D9B451" d="M96.017,42.986h2.628v2.465h-2.628V42.986z"/>
	<path fill="#D9B451" d="M114.852,41.826l2.398,0.725c-0.16,0.673-0.414,1.235-0.761,1.687c-0.347,0.45-0.776,0.791-1.29,1.021
		s-1.167,0.345-1.961,0.345c-0.962,0-1.748-0.141-2.358-0.42s-1.138-0.771-1.58-1.477c-0.442-0.704-0.665-1.605-0.665-2.704
		c0-1.466,0.391-2.592,1.17-3.378c0.779-0.787,1.882-1.181,3.308-1.181c1.115,0,1.992,0.226,2.631,0.677
		c0.638,0.451,1.112,1.144,1.423,2.078l-2.416,0.538c-0.086-0.271-0.174-0.468-0.267-0.593c-0.153-0.209-0.341-0.37-0.562-0.483
		c-0.222-0.112-0.47-0.169-0.743-0.169c-0.62,0-1.096,0.25-1.426,0.748c-0.25,0.37-0.375,0.952-0.375,1.744
		c0,0.981,0.149,1.654,0.447,2.019s0.717,0.546,1.257,0.546c0.523,0,0.919-0.146,1.188-0.44
		C114.537,42.813,114.73,42.386,114.852,41.826z"/>
	<path fill="#D9B451" d="M126.896,41.028c0-1.445,0.402-2.571,1.208-3.377s1.927-1.208,3.365-1.208c1.474,0,2.61,0.396,3.407,1.188
		c0.798,0.791,1.196,1.899,1.196,3.325c0,1.035-0.175,1.884-0.522,2.547c-0.349,0.662-0.852,1.178-1.51,1.547
		c-0.659,0.368-1.48,0.553-2.463,0.553c-0.998,0-1.825-0.159-2.479-0.478c-0.655-0.318-1.186-0.821-1.593-1.511
		C127.1,42.926,126.896,42.064,126.896,41.028z M129.633,41.041c0,0.894,0.166,1.536,0.498,1.927
		c0.333,0.391,0.785,0.586,1.357,0.586c0.588,0,1.043-0.19,1.365-0.573s0.482-1.069,0.482-2.061c0-0.834-0.168-1.442-0.504-1.827
		s-0.793-0.577-1.368-0.577c-0.552,0-0.995,0.195-1.329,0.586S129.633,40.139,129.633,41.041z"/>
	<path fill="#D9B451" d="M146.178,36.595h3.6l1.389,5.389l1.377-5.389h3.598v8.856h-2.241v-6.754l-1.728,6.754h-2.028l-1.724-6.754
		v6.754h-2.242V36.595z"/>
</g>
</svg>
