<?xml version="1.0" encoding="utf-8"?>
<!-- Generator: Adobe Illustrator 18.0.0, SVG Export Plug-In . SVG Version: 6.00 Build 0)  -->
<!DOCTYPE svg PUBLIC "-//W3C//DTD SVG 1.1//EN" "http://www.w3.org/Graphics/SVG/1.1/DTD/svg11.dtd">
<svg version="1.1" id="Layer_1" xmlns="http://www.w3.org/2000/svg" xmlns:xlink="http://www.w3.org/1999/xlink" x="0px" y="0px"
	 viewBox="0 0 219 208" enable-background="new 0 0 219 208" xml:space="preserve">
<linearGradient id="SVGID_1_" gradientUnits="userSpaceOnUse" x1="47.64" y1="158.59" x2="212.4988" y2="158.59">
	<stop  offset="0" style="stop-color:#FFFFFF;stop-opacity:0.45"/>
	<stop  offset="1" style="stop-color:#FFFFFF;stop-opacity:5.000000e-02"/>
</linearGradient>
<path fill-rule="evenodd" clip-rule="evenodd" fill="url(#SVGID_1_)" d="M47.6,161.9h16.2l-12,9.8h40.5L91,191.5l56.2-22.7
	c0,0,37.6-3.3,59.9-20.3l-17.3,0.3l-4.7-9.5l-72.2,33.5l9.3-24.3L75.7,148c-1.2,0.8-1.8,1.3-1.8,1.3L47.6,161.9z M209.8,145.8
	c2.3-3,6-9.9-3.8-14.8l-5.4,14.6L209.8,145.8z M198.2,128.3c-6.8-1.6-16.6-2.7-30.6-2.7c-48.6,0-77.5,13.7-88.5,20.2l53.9-0.5
	l3.6,11.5L198.2,128.3z"/>
<path fill-rule="evenodd" clip-rule="evenodd" fill="#FFFFFF" d="M11.5,110.2h16.2V137h40.4l22.9,54.5l28.3-62.5
	c0,0,33.5-9.1,35-55.9l-16.9,0.8L121,47.8l-31.1,92.3L69.4,73.2l-46.9-1.3c-0.2,2.2-0.2,3.5-0.2,3.5L11.5,110.2z"/>
<path fill-rule="evenodd" clip-rule="evenodd" fill="#FFFFFF" d="M153.7,65.9c-1.4-8.3-6.1-27.2-21.9-40.7l12.5,40.2L153.7,65.9z"/>
<path fill-rule="evenodd" clip-rule="evenodd" fill="#FFFFFF" d="M120.7,17.8c-8.8-4.4-19.8-7.3-33.8-7.3
	c-48.5,0-60.6,37.7-63.6,55.6l53.2-1.4l17.7,31.7L120.7,17.8z"/>
</svg>
