<?xml version="1.0" encoding="utf-8"?>
<!-- Generator: Adobe Illustrator 17.0.0, SVG Export Plug-In . SVG Version: 6.00 Build 0)  -->
<!DOCTYPE svg PUBLIC "-//W3C//DTD SVG 1.1//EN" "http://www.w3.org/Graphics/SVG/1.1/DTD/svg11.dtd">
<svg version="1.1" id="Layer_1" xmlns="http://www.w3.org/2000/svg" xmlns:xlink="http://www.w3.org/1999/xlink" x="0px" y="0px"
	 width="251px" height="106px" viewBox="0 0 251 106" enable-background="new 0 0 251 106" xml:space="preserve">
<g opacity="0.75">
	<path fill="#FFFFFF" d="M18.251,70.065v6.415c0,0.367-0.073,0.706-0.218,1.018c-0.146,0.311-0.337,0.581-0.576,0.807
		c-0.239,0.226-0.514,0.403-0.825,0.532c-0.311,0.128-0.638,0.193-0.98,0.193h-1.268c-0.376,0-0.71-0.071-1.005-0.21
		c-0.295-0.143-0.542-0.333-0.743-0.576c-0.202-0.243-0.354-0.524-0.461-0.846c-0.107-0.32-0.16-0.655-0.16-1.004v-2.306h1.461
		v2.293c0,0.153,0.03,0.302,0.089,0.448s0.143,0.272,0.249,0.385c0.107,0.112,0.238,0.202,0.39,0.269
		c0.154,0.069,0.32,0.102,0.5,0.102h0.73c0.418,0,0.749-0.108,0.993-0.327c0.243-0.219,0.364-0.51,0.364-0.876v-6.314h1.459V70.065z
		"/>
	<path fill="#FFFFFF" d="M20.939,76.647c-0.487,0-0.843-0.151-1.069-0.454c-0.226-0.304-0.34-0.725-0.34-1.262v-4.866h1.461v4.585
		c0,0.239,0.033,0.389,0.102,0.448c0.068,0.06,0.213,0.089,0.435,0.089h0.218v1.461h-0.807L20.939,76.647L20.939,76.647z"/>
	<path fill="#FFFFFF" d="M25.037,76.647c-0.248,0-0.47-0.098-0.666-0.295c-0.094,0.094-0.196,0.167-0.307,0.218
		c-0.111,0.052-0.239,0.078-0.385,0.078h-1.933c-0.068,0-0.137-0.009-0.205-0.026c-0.068-0.019-0.102-0.043-0.102-0.078v-1.268
		c0-0.033,0.035-0.058,0.102-0.071c0.068-0.013,0.137-0.02,0.205-0.02h1.459c0.282,0,0.422-0.153,0.422-0.461v-1.574h1.459v1.574
		c0,0.308,0.146,0.461,0.435,0.461h0.23v1.461h-0.716L25.037,76.647L25.037,76.647z M22.067,71.422c0-0.212,0.075-0.396,0.225-0.55
		c0.15-0.153,0.33-0.23,0.543-0.23c0.222,0,0.408,0.078,0.557,0.23s0.225,0.337,0.225,0.55c0,0.213-0.075,0.395-0.225,0.545
		c-0.15,0.15-0.334,0.223-0.557,0.223c-0.213,0-0.395-0.075-0.543-0.223C22.141,71.818,22.067,71.637,22.067,71.422z M23.872,71.422
		c0-0.212,0.072-0.396,0.218-0.55c0.146-0.153,0.328-0.23,0.55-0.23c0.213,0,0.396,0.078,0.55,0.23
		c0.153,0.153,0.23,0.337,0.23,0.55c0,0.213-0.078,0.395-0.23,0.545c-0.154,0.15-0.337,0.223-0.55,0.223
		c-0.222,0-0.405-0.075-0.55-0.223C23.944,71.818,23.872,71.637,23.872,71.422z"/>
	<path fill="#FFFFFF" d="M29.044,76.647c-0.248,0-0.47-0.098-0.666-0.295c-0.094,0.094-0.196,0.167-0.307,0.218
		c-0.111,0.052-0.239,0.078-0.385,0.078h-1.933c-0.068,0-0.137-0.009-0.205-0.026c-0.068-0.019-0.102-0.043-0.102-0.078v-1.268
		c0-0.033,0.035-0.058,0.102-0.071s0.137-0.02,0.205-0.02h1.459c0.282,0,0.422-0.153,0.422-0.461v-1.574h1.459v1.574
		c0,0.308,0.146,0.461,0.435,0.461h0.23v1.461h-0.716L29.044,76.647L29.044,76.647z M26.073,78.554c0-0.213,0.075-0.395,0.225-0.545
		c0.15-0.15,0.33-0.223,0.543-0.223c0.222,0,0.408,0.075,0.557,0.223c0.15,0.148,0.225,0.33,0.225,0.545s-0.075,0.396-0.225,0.55
		s-0.334,0.23-0.557,0.23c-0.213,0-0.395-0.076-0.543-0.23C26.148,78.952,26.073,78.769,26.073,78.554z M27.88,78.554
		c0-0.213,0.072-0.395,0.218-0.545c0.146-0.15,0.328-0.223,0.55-0.223c0.213,0,0.396,0.075,0.55,0.223
		c0.153,0.15,0.23,0.33,0.23,0.545s-0.078,0.396-0.23,0.55c-0.154,0.154-0.337,0.23-0.55,0.23c-0.222,0-0.405-0.076-0.55-0.23
		C27.952,78.952,27.88,78.769,27.88,78.554z"/>
	<path fill="#FFFFFF" d="M35.242,76.647c-0.717,0-1.255-0.321-1.613-0.961l-0.411,0.23c-0.426,0.248-0.82,0.431-1.178,0.55
		c-0.359,0.12-0.755,0.18-1.191,0.18h-1.088c-0.068,0-0.137-0.009-0.205-0.026c-0.068-0.019-0.102-0.043-0.102-0.078v-1.268
		c0-0.033,0.035-0.058,0.102-0.071s0.137-0.02,0.205-0.02h0.844c0.326,0,0.611-0.017,0.859-0.05c0.248-0.033,0.47-0.094,0.666-0.18
		c0.052-0.017,0.215-0.099,0.493-0.249c0.277-0.15,0.667-0.36,1.171-0.634c-0.033-0.12-0.108-0.22-0.223-0.307
		c-0.115-0.086-0.331-0.128-0.647-0.128h-2.19l-0.206-1.448h2.664c0.733,0,1.281,0.222,1.639,0.667
		c0.359,0.444,0.537,1.066,0.537,1.868l-0.691,0.386c0.052,0.05,0.158,0.076,0.32,0.076h0.628v1.461H35.242z M31.644,78.567
		c0-0.213,0.075-0.395,0.225-0.545c0.15-0.15,0.33-0.223,0.543-0.223c0.213,0,0.398,0.075,0.55,0.223
		c0.153,0.148,0.23,0.33,0.23,0.545s-0.078,0.396-0.23,0.55c-0.153,0.154-0.337,0.23-0.55,0.23c-0.213,0-0.395-0.076-0.543-0.23
		C31.719,78.965,31.644,78.782,31.644,78.567z"/>
	<path fill="#FFFFFF" d="M34.947,78.554c0-0.213,0.075-0.395,0.225-0.545c0.15-0.15,0.33-0.223,0.543-0.223
		c0.222,0,0.408,0.075,0.557,0.223c0.15,0.148,0.225,0.33,0.225,0.545s-0.075,0.396-0.225,0.55s-0.334,0.23-0.557,0.23
		c-0.213,0-0.395-0.076-0.543-0.23C35.022,78.952,34.947,78.769,34.947,78.554z M35.319,75.277c0-0.033,0.035-0.058,0.102-0.071
		c0.068-0.013,0.137-0.02,0.205-0.02h1.435c0.3,0,0.448-0.153,0.448-0.461v-1.574h1.459v1.703c0,0.23-0.04,0.452-0.121,0.667
		c-0.081,0.213-0.192,0.402-0.333,0.57c-0.141,0.166-0.307,0.301-0.5,0.403c-0.192,0.101-0.403,0.153-0.634,0.153h-1.755
		c-0.068,0-0.137-0.009-0.205-0.026c-0.068-0.019-0.102-0.043-0.102-0.078L35.319,75.277L35.319,75.277z M36.753,78.554
		c0-0.213,0.072-0.395,0.218-0.545c0.146-0.15,0.328-0.223,0.55-0.223c0.213,0,0.398,0.075,0.55,0.223
		c0.153,0.148,0.23,0.33,0.23,0.545s-0.078,0.396-0.23,0.55c-0.153,0.154-0.337,0.23-0.55,0.23c-0.222,0-0.405-0.076-0.55-0.23
		C36.825,78.952,36.753,78.769,36.753,78.554z"/>
	<path fill="#FFFFFF" d="M40.183,76.647l-0.192-1.448h3.355c0.06,0,0.107-0.014,0.141-0.045c0.033-0.03,0.052-0.066,0.052-0.108
		c0-0.059-0.026-0.115-0.076-0.166l-2.267-2.422l1.024-1.037l2.266,2.381c0.196,0.206,0.337,0.429,0.422,0.673
		c0.085,0.243,0.128,0.475,0.128,0.697c0,0.197-0.036,0.385-0.109,0.565c-0.072,0.179-0.18,0.336-0.32,0.472
		c-0.14,0.137-0.315,0.243-0.526,0.321c-0.209,0.076-0.447,0.115-0.71,0.115H40.183z"/>
	<path fill="#FFFFFF" d="M54.793,76.314c0,0.376-0.066,0.727-0.199,1.056c-0.133,0.33-0.314,0.617-0.545,0.864
		s-0.504,0.442-0.82,0.583c-0.315,0.141-0.658,0.21-1.024,0.21H50.76c-0.435,0-0.811-0.065-1.127-0.193
		c-0.315-0.128-0.579-0.307-0.788-0.537c-0.209-0.23-0.363-0.504-0.461-0.82c-0.098-0.315-0.148-0.661-0.148-1.037v-2.357h1.461
		v2.357c0,0.161,0.036,0.313,0.108,0.449c0.072,0.137,0.167,0.256,0.282,0.359c0.115,0.101,0.245,0.18,0.39,0.236
		c0.146,0.055,0.295,0.084,0.448,0.084h1.217c0.146,0,0.294-0.024,0.448-0.071c0.153-0.046,0.292-0.115,0.416-0.206
		c0.124-0.089,0.226-0.196,0.307-0.32c0.081-0.124,0.121-0.259,0.121-0.403c0-0.153-0.043-0.281-0.128-0.385
		c-0.085-0.104-0.218-0.153-0.396-0.153h-1.768v-1.729c0-0.272,0.055-0.529,0.166-0.768c0.111-0.239,0.258-0.449,0.442-0.628
		c0.184-0.179,0.395-0.321,0.634-0.422c0.239-0.102,0.487-0.154,0.743-0.154h1.446v1.461h-1.42c-0.359,0-0.539,0.197-0.539,0.589
		v0.344h0.679c0.546,0,0.932,0.144,1.158,0.429C54.681,75.441,54.793,75.827,54.793,76.314z"/>
	<path fill="#FFFFFF" d="M56.061,76.647v-6.582h1.461v6.582H56.061z"/>
	<path fill="#FFFFFF" d="M62.719,76.647c-0.026,0.34-0.118,0.657-0.275,0.946c-0.157,0.291-0.359,0.543-0.601,0.755
		c-0.243,0.213-0.519,0.38-0.825,0.5c-0.307,0.12-0.624,0.18-0.948,0.18h-1.076l-0.192-1.435h1.102c0.307,0,0.591-0.076,0.851-0.23
		c0.261-0.153,0.421-0.392,0.48-0.716c-0.367-0.009-0.7-0.048-0.998-0.115c-0.3-0.069-0.555-0.184-0.768-0.346
		c-0.213-0.161-0.377-0.376-0.493-0.64c-0.115-0.264-0.173-0.598-0.173-0.998c0-0.751,0.156-1.325,0.468-1.721
		c0.313-0.396,0.801-0.595,1.466-0.595c0.291,0,0.557,0.049,0.801,0.147c0.243,0.098,0.452,0.248,0.628,0.449
		c0.176,0.2,0.311,0.455,0.409,0.768c0.098,0.313,0.148,0.686,0.148,1.119v0.474h0.524v1.461h-0.53L62.719,76.647L62.719,76.647z
		 M61.234,75.188v-0.807c0-0.248-0.06-0.425-0.18-0.532c-0.12-0.107-0.243-0.16-0.372-0.16c-0.196,0-0.333,0.065-0.409,0.193
		c-0.076,0.128-0.115,0.281-0.115,0.46c0,0.274,0.072,0.483,0.218,0.628c0.146,0.147,0.38,0.218,0.704,0.218L61.234,75.188
		L61.234,75.188z"/>
	<path fill="#FFFFFF" d="M66.535,76.647c-0.248,0-0.47-0.098-0.666-0.295c-0.094,0.094-0.196,0.167-0.307,0.218
		c-0.111,0.052-0.239,0.078-0.385,0.078h-1.933c-0.068,0-0.137-0.009-0.205-0.026c-0.068-0.019-0.102-0.043-0.102-0.078v-1.268
		c0-0.033,0.035-0.058,0.102-0.071s0.137-0.02,0.205-0.02h1.459c0.282,0,0.422-0.153,0.422-0.461v-1.574h1.459v1.574
		c0,0.308,0.146,0.461,0.435,0.461h0.23v1.461h-0.716L66.535,76.647L66.535,76.647z M63.565,71.422c0-0.212,0.075-0.396,0.225-0.55
		c0.15-0.153,0.33-0.23,0.543-0.23c0.222,0,0.408,0.078,0.557,0.23c0.15,0.153,0.225,0.337,0.225,0.55
		c0,0.213-0.075,0.395-0.225,0.545c-0.15,0.15-0.334,0.223-0.557,0.223c-0.213,0-0.395-0.075-0.543-0.223
		C63.64,71.818,63.565,71.637,63.565,71.422z M65.37,71.422c0-0.212,0.072-0.396,0.218-0.55c0.146-0.153,0.328-0.23,0.55-0.23
		c0.213,0,0.396,0.078,0.55,0.23c0.153,0.153,0.23,0.337,0.23,0.55c0,0.213-0.078,0.395-0.23,0.545
		c-0.154,0.15-0.337,0.223-0.55,0.223c-0.222,0-0.405-0.075-0.55-0.223C65.443,71.818,65.37,71.637,65.37,71.422z"/>
	<path fill="#FFFFFF" d="M72.732,76.647c-0.717,0-1.255-0.321-1.613-0.961l-0.411,0.23c-0.426,0.248-0.82,0.431-1.178,0.55
		c-0.359,0.12-0.755,0.18-1.191,0.18h-1.088c-0.068,0-0.137-0.009-0.205-0.026c-0.068-0.019-0.102-0.043-0.102-0.078v-1.268
		c0-0.033,0.035-0.058,0.102-0.071c0.068-0.013,0.137-0.02,0.205-0.02h0.844c0.326,0,0.611-0.017,0.859-0.05
		c0.248-0.033,0.47-0.094,0.666-0.18c0.052-0.017,0.215-0.099,0.493-0.249c0.277-0.15,0.667-0.36,1.171-0.634
		c-0.033-0.12-0.108-0.22-0.223-0.307c-0.115-0.086-0.331-0.128-0.647-0.128h-2.19l-0.206-1.448h2.664
		c0.733,0,1.281,0.222,1.639,0.667c0.359,0.444,0.537,1.066,0.537,1.868l-0.691,0.386c0.052,0.05,0.158,0.076,0.32,0.076h0.628
		v1.461H72.732z"/>
	<path fill="#FFFFFF" d="M72.809,75.277c0-0.033,0.035-0.058,0.102-0.071c0.068-0.013,0.137-0.02,0.205-0.02h0.128
		c0.239,0,0.416-0.055,0.532-0.166s0.173-0.3,0.173-0.565c0-0.281,0.045-0.559,0.134-0.831c0.089-0.272,0.218-0.519,0.385-0.738
		c0.166-0.216,0.366-0.392,0.601-0.524c0.235-0.133,0.493-0.199,0.775-0.199c0.307,0,0.585,0.071,0.833,0.21
		c0.248,0.14,0.457,0.326,0.628,0.552c0.17,0.225,0.302,0.478,0.396,0.755c0.094,0.277,0.141,0.553,0.141,0.825
		c0,0.298-0.049,0.578-0.147,0.838c-0.098,0.261-0.235,0.487-0.411,0.679c-0.174,0.193-0.386,0.344-0.634,0.454
		c-0.248,0.111-0.516,0.167-0.807,0.167c-0.605,0-1.05-0.193-1.331-0.576c-0.248,0.385-0.644,0.576-1.191,0.576h-0.205
		c-0.068,0-0.137-0.009-0.205-0.026c-0.068-0.019-0.102-0.043-0.102-0.078L72.809,75.277L72.809,75.277z M75.87,73.613
		c-0.196,0-0.36,0.063-0.493,0.192c-0.133,0.128-0.199,0.333-0.199,0.615c0,0.248,0.068,0.438,0.205,0.57
		c0.137,0.133,0.3,0.199,0.487,0.199c0.23,0,0.409-0.072,0.537-0.218c0.128-0.146,0.192-0.328,0.192-0.55
		c0-0.197-0.062-0.38-0.184-0.55C76.289,73.697,76.108,73.613,75.87,73.613z"/>
	<path fill="#FFFFFF" d="M87.266,70.065v6.415c0,0.367-0.073,0.706-0.218,1.018c-0.146,0.311-0.337,0.581-0.576,0.807
		c-0.239,0.226-0.514,0.403-0.825,0.532c-0.311,0.128-0.638,0.193-0.98,0.193H83.4c-0.376,0-0.71-0.071-1.006-0.21
		c-0.295-0.143-0.542-0.333-0.743-0.576s-0.354-0.524-0.461-0.846c-0.107-0.32-0.16-0.655-0.16-1.004v-2.306h1.461v2.293
		c0,0.153,0.03,0.302,0.089,0.448s0.143,0.272,0.249,0.385c0.107,0.112,0.238,0.202,0.39,0.269c0.154,0.069,0.32,0.102,0.5,0.102
		h0.73c0.418,0,0.749-0.108,0.993-0.327c0.243-0.219,0.364-0.51,0.364-0.876v-6.314h1.459V70.065z"/>
	<path fill="#FFFFFF" d="M91.644,76.647c-0.179,0-0.333-0.052-0.461-0.153c0,0.418-0.079,0.785-0.238,1.101
		c-0.157,0.317-0.363,0.581-0.614,0.795c-0.252,0.212-0.532,0.373-0.84,0.48s-0.615,0.16-0.922,0.16h-0.55l-0.218-1.435h0.269
		c0.307,0,0.565-0.033,0.775-0.102c0.209-0.068,0.377-0.154,0.506-0.262c0.128-0.108,0.222-0.229,0.281-0.366
		c0.059-0.137,0.089-0.277,0.089-0.422v-3.29h1.459v1.69c0.009,0.23,0.158,0.346,0.448,0.346h0.218v1.461h-0.203L91.644,76.647
		L91.644,76.647z"/>
	<path fill="#FFFFFF" d="M95.14,76.647c-0.248,0-0.47-0.098-0.666-0.295c-0.094,0.094-0.196,0.167-0.307,0.218
		c-0.111,0.052-0.239,0.078-0.385,0.078H91.85c-0.068,0-0.137-0.009-0.205-0.026c-0.068-0.019-0.102-0.043-0.102-0.078v-1.268
		c0-0.033,0.035-0.058,0.102-0.071c0.068-0.013,0.137-0.02,0.205-0.02h1.459c0.282,0,0.422-0.153,0.422-0.461v-1.574h1.459v1.574
		c0,0.308,0.146,0.461,0.435,0.461h0.23v1.461H95.14L95.14,76.647L95.14,76.647z M92.17,71.422c0-0.212,0.075-0.396,0.225-0.55
		c0.15-0.153,0.33-0.23,0.543-0.23c0.222,0,0.408,0.078,0.557,0.23c0.15,0.153,0.225,0.337,0.225,0.55
		c0,0.213-0.075,0.395-0.225,0.545c-0.15,0.15-0.334,0.223-0.557,0.223c-0.213,0-0.395-0.075-0.543-0.223
		C92.245,71.818,92.17,71.637,92.17,71.422z M93.975,71.422c0-0.212,0.072-0.396,0.218-0.55c0.146-0.153,0.328-0.23,0.55-0.23
		c0.213,0,0.396,0.078,0.55,0.23c0.153,0.153,0.23,0.337,0.23,0.55c0,0.213-0.078,0.395-0.23,0.545
		c-0.154,0.15-0.337,0.223-0.55,0.223c-0.222,0-0.405-0.075-0.55-0.223C94.047,71.818,93.975,71.637,93.975,71.422z"/>
	<path fill="#FFFFFF" d="M99.148,76.647c-0.248,0-0.47-0.098-0.666-0.295c-0.094,0.094-0.196,0.167-0.307,0.218
		c-0.111,0.052-0.239,0.078-0.385,0.078h-1.933c-0.068,0-0.137-0.009-0.205-0.026c-0.068-0.019-0.102-0.043-0.102-0.078v-1.268
		c0-0.033,0.035-0.058,0.102-0.071c0.068-0.013,0.137-0.02,0.205-0.02h1.459c0.282,0,0.422-0.153,0.422-0.461v-1.574h1.459v1.574
		c0,0.308,0.146,0.461,0.435,0.461h0.23v1.461h-0.716L99.148,76.647L99.148,76.647z M97.086,71.422c0-0.212,0.075-0.396,0.223-0.55
		c0.148-0.154,0.33-0.23,0.545-0.23c0.213,0,0.396,0.078,0.55,0.23c0.153,0.153,0.23,0.337,0.23,0.55
		c0,0.213-0.076,0.395-0.23,0.545c-0.154,0.15-0.337,0.223-0.55,0.223c-0.213,0-0.395-0.075-0.545-0.223
		C97.16,71.818,97.086,71.637,97.086,71.422z"/>
	<path fill="#FFFFFF" d="M99.557,75.277c0-0.033,0.035-0.058,0.102-0.071c0.068-0.013,0.137-0.02,0.205-0.02h2.638
		c0.18,0,0.269-0.068,0.269-0.206c0-0.068-0.03-0.133-0.089-0.192l-2.485-2.6l-0.153-1.344l3.905-1.422l0.23,1.448l-2.331,0.909
		l1.972,2.113c0.171,0.17,0.3,0.367,0.385,0.589c0.085,0.22,0.128,0.439,0.128,0.653c0,0.196-0.036,0.385-0.109,0.563
		c-0.072,0.18-0.179,0.339-0.32,0.481c-0.141,0.141-0.323,0.254-0.543,0.339c-0.222,0.085-0.478,0.128-0.769,0.128h-2.727
		c-0.068,0-0.137-0.009-0.205-0.026c-0.068-0.019-0.102-0.043-0.102-0.078L99.557,75.277L99.557,75.277z"/>
	<path fill="#FFFFFF" d="M107.535,77.593h1.102c0.307,0,0.591-0.076,0.851-0.23c0.261-0.153,0.421-0.392,0.48-0.716
		c-0.367-0.009-0.7-0.048-0.998-0.115c-0.3-0.069-0.555-0.184-0.768-0.346c-0.213-0.161-0.377-0.376-0.493-0.64
		c-0.115-0.264-0.173-0.598-0.173-0.998c0-0.751,0.156-1.325,0.468-1.721c0.313-0.396,0.801-0.595,1.466-0.595
		c0.291,0,0.557,0.046,0.801,0.141c0.243,0.095,0.452,0.241,0.628,0.442c0.176,0.2,0.311,0.455,0.409,0.768
		c0.098,0.311,0.148,0.69,0.148,1.132v1.78c0,0.357-0.075,0.69-0.225,0.997c-0.15,0.308-0.347,0.576-0.595,0.808
		c-0.248,0.232-0.532,0.409-0.851,0.537c-0.32,0.128-0.647,0.193-0.98,0.193h-1.076L107.535,77.593z M109.968,75.188v-0.807
		c0-0.248-0.06-0.425-0.18-0.532c-0.12-0.107-0.243-0.16-0.372-0.16c-0.196,0-0.333,0.065-0.409,0.193
		c-0.076,0.128-0.115,0.281-0.115,0.46c0,0.274,0.072,0.483,0.218,0.628c0.146,0.147,0.38,0.218,0.704,0.218L109.968,75.188
		L109.968,75.188z"/>
	<path fill="#FFFFFF" d="M126.511,76.647c-0.196,0-0.369-0.024-0.519-0.071c-0.15-0.048-0.271-0.131-0.364-0.251
		c-0.146,0.146-0.311,0.259-0.5,0.339c-0.187,0.082-0.396,0.122-0.628,0.122c-0.581,0-1.011-0.202-1.292-0.602
		c-0.163,0.197-0.354,0.346-0.576,0.449c-0.222,0.101-0.457,0.153-0.704,0.153c-0.12,0-0.23-0.013-0.333-0.037
		c-0.102-0.027-0.21-0.06-0.32-0.102c-0.017,0.349-0.101,0.67-0.249,0.959c-0.15,0.291-0.341,0.54-0.576,0.751
		c-0.235,0.209-0.504,0.373-0.807,0.493c-0.303,0.12-0.621,0.18-0.954,0.18h-1.665c-0.376,0-0.71-0.071-1.006-0.21
		c-0.295-0.143-0.542-0.333-0.743-0.576c-0.202-0.243-0.354-0.524-0.461-0.846c-0.107-0.32-0.16-0.655-0.16-1.004v-2.306h1.461
		v2.293c0,0.153,0.03,0.303,0.089,0.448c0.059,0.146,0.143,0.272,0.249,0.385c0.107,0.112,0.238,0.202,0.39,0.269
		c0.154,0.069,0.32,0.102,0.5,0.102h1.127c0.426,0,0.759-0.108,0.998-0.327c0.239-0.219,0.359-0.51,0.359-0.876v-3.227h1.459v1.626
		c0,0.197,0.049,0.334,0.147,0.416c0.098,0.081,0.203,0.121,0.314,0.121c0.128,0,0.241-0.045,0.34-0.134
		c0.098-0.089,0.147-0.225,0.147-0.403v-1.626h1.485v1.626c0,0.179,0.045,0.314,0.134,0.403c0.089,0.089,0.194,0.134,0.314,0.134
		c0.12,0,0.229-0.045,0.327-0.134c0.098-0.089,0.148-0.225,0.148-0.403v-1.626h1.485v1.755c0.009,0.187,0.128,0.281,0.359,0.281
		h0.601v1.461h-0.576V76.647z M121.261,71.372c0-0.213,0.075-0.396,0.223-0.552c0.15-0.153,0.33-0.229,0.545-0.229
		c0.222,0,0.408,0.076,0.557,0.229c0.15,0.154,0.223,0.337,0.223,0.552c0,0.212-0.075,0.393-0.223,0.545
		c-0.15,0.15-0.336,0.223-0.557,0.223c-0.213,0-0.395-0.075-0.545-0.223C121.335,71.766,121.261,71.585,121.261,71.372z
		 M122.169,69.822c0-0.212,0.075-0.396,0.225-0.55c0.15-0.153,0.33-0.23,0.543-0.23c0.213,0,0.398,0.078,0.55,0.23
		c0.154,0.153,0.23,0.337,0.23,0.55c0,0.213-0.076,0.395-0.23,0.545c-0.153,0.15-0.337,0.225-0.55,0.225
		c-0.213,0-0.395-0.076-0.543-0.225C122.244,70.216,122.169,70.035,122.169,69.822z M123.066,71.372
		c0-0.213,0.072-0.396,0.218-0.552c0.146-0.153,0.328-0.229,0.55-0.229c0.213,0,0.396,0.076,0.55,0.229
		c0.154,0.154,0.23,0.337,0.23,0.552c0,0.212-0.076,0.393-0.23,0.545c-0.153,0.15-0.337,0.223-0.55,0.223
		c-0.222,0-0.406-0.075-0.55-0.223C123.138,71.766,123.066,71.585,123.066,71.372z"/>
	<path fill="#FFFFFF" d="M126.408,78.554c0-0.213,0.075-0.395,0.225-0.545c0.15-0.15,0.33-0.223,0.543-0.223
		c0.222,0,0.408,0.075,0.557,0.223c0.15,0.148,0.225,0.33,0.225,0.545s-0.075,0.396-0.225,0.55c-0.15,0.154-0.334,0.23-0.557,0.23
		c-0.213,0-0.395-0.076-0.543-0.23C126.483,78.952,126.408,78.769,126.408,78.554z M126.78,75.277c0-0.033,0.035-0.058,0.102-0.071
		c0.068-0.013,0.137-0.02,0.205-0.02h1.435c0.3,0,0.448-0.153,0.448-0.461v-1.574h1.459v1.703c0,0.23-0.04,0.452-0.121,0.667
		c-0.081,0.213-0.192,0.402-0.333,0.57c-0.141,0.166-0.307,0.301-0.5,0.403c-0.192,0.101-0.403,0.153-0.634,0.153h-1.755
		c-0.068,0-0.137-0.009-0.205-0.026c-0.068-0.019-0.102-0.043-0.102-0.078L126.78,75.277L126.78,75.277z M128.214,78.554
		c0-0.213,0.072-0.395,0.218-0.545c0.146-0.15,0.328-0.223,0.55-0.223c0.213,0,0.398,0.075,0.55,0.223
		c0.153,0.148,0.23,0.33,0.23,0.545s-0.078,0.396-0.23,0.55c-0.153,0.154-0.337,0.23-0.55,0.23c-0.222,0-0.405-0.076-0.55-0.23
		C128.287,78.952,128.214,78.769,128.214,78.554z"/>
	<path fill="#FFFFFF" d="M133.119,76.647c-0.487,0-0.843-0.151-1.069-0.454c-0.226-0.304-0.34-0.725-0.34-1.262v-4.866h1.461v4.585
		c0,0.239,0.033,0.389,0.102,0.448c0.068,0.06,0.213,0.089,0.435,0.089h0.218v1.461h-0.807L133.119,76.647L133.119,76.647z"/>
	<path fill="#FFFFFF" d="M139.264,76.647c-0.248,0-0.461-0.036-0.641-0.109c-0.179-0.072-0.366-0.215-0.563-0.429
		c-0.197,0.171-0.421,0.304-0.673,0.398c-0.252,0.092-0.501,0.141-0.749,0.141c-0.248,0-0.487-0.048-0.717-0.141
		c-0.23-0.094-0.428-0.239-0.589-0.437c-0.12,0.222-0.294,0.375-0.524,0.454c-0.23,0.082-0.504,0.122-0.82,0.122h-0.063
		c-0.068,0-0.137-0.009-0.205-0.026c-0.068-0.019-0.102-0.043-0.102-0.078v-1.268c0-0.033,0.035-0.058,0.102-0.071
		s0.137-0.02,0.205-0.02h0.23c0.161,0,0.308-0.053,0.442-0.16c0.133-0.105,0.199-0.295,0.199-0.57c0-0.29,0.045-0.57,0.134-0.838
		c0.089-0.269,0.218-0.506,0.386-0.71c0.166-0.206,0.366-0.367,0.602-0.487c0.233-0.12,0.497-0.179,0.787-0.179
		c0.3,0,0.57,0.066,0.812,0.199c0.242,0.133,0.449,0.303,0.621,0.511c0.171,0.21,0.301,0.448,0.39,0.717
		c0.089,0.269,0.135,0.539,0.135,0.812c0,0.298,0.042,0.491,0.128,0.575c0.086,0.086,0.238,0.128,0.46,0.128h0.193v1.461h-0.18
		L139.264,76.647L139.264,76.647z M136.754,73.599c-0.197,0-0.363,0.068-0.501,0.2c-0.135,0.133-0.205,0.339-0.205,0.621
		c0,0.248,0.071,0.438,0.21,0.57c0.14,0.133,0.305,0.199,0.494,0.199c0.239,0,0.413-0.079,0.523-0.236
		c0.112-0.157,0.167-0.334,0.167-0.532c0-0.197-0.058-0.382-0.173-0.557C137.156,73.688,136.985,73.599,136.754,73.599z"/>
	<path fill="#FFFFFF" d="M139.134,75.277c0-0.033,0.035-0.058,0.104-0.071c0.068-0.013,0.135-0.02,0.205-0.02h1.433
		c0.3,0,0.449-0.153,0.449-0.461v-1.574h1.459v1.703c0,0.23-0.039,0.452-0.121,0.667c-0.082,0.215-0.192,0.402-0.331,0.57
		c-0.141,0.166-0.308,0.301-0.501,0.403c-0.192,0.101-0.402,0.153-0.632,0.153h-1.755c-0.069,0-0.137-0.009-0.205-0.026
		c-0.069-0.019-0.104-0.043-0.104-0.078v-1.266H139.134z M140.339,71.422c0-0.212,0.075-0.396,0.225-0.55
		c0.15-0.153,0.33-0.23,0.543-0.23c0.213,0,0.396,0.078,0.552,0.23c0.153,0.153,0.23,0.337,0.23,0.55
		c0,0.213-0.078,0.395-0.23,0.545c-0.154,0.15-0.337,0.223-0.552,0.223c-0.215,0-0.393-0.075-0.543-0.223
		C140.413,71.818,140.339,71.637,140.339,71.422z"/>
	<path fill="#FFFFFF" d="M152.389,76.647c-0.248,0-0.444-0.048-0.589-0.141c-0.144-0.094-0.29-0.226-0.435-0.398
		c-0.153,0.18-0.353,0.32-0.595,0.416c-0.243,0.098-0.523,0.148-0.838,0.148c-1.298,0-1.948-0.657-1.948-1.972v-0.922
		c-0.357,0-0.537,0.213-0.537,0.64v4.61h-1.461v-4.444c0-0.716,0.177-1.273,0.532-1.67c0.354-0.398,0.877-0.596,1.569-0.596h1.613
		c0.717,0,1.255,0.199,1.612,0.596c0.36,0.396,0.539,0.984,0.539,1.76c0,0.197,0.04,0.33,0.122,0.403
		c0.081,0.072,0.219,0.108,0.415,0.108h0.269v1.461L152.389,76.647L152.389,76.647z M150.392,74.725
		c0-0.324-0.063-0.563-0.186-0.716c-0.124-0.153-0.379-0.23-0.762-0.23v0.946c0,0.326,0.166,0.487,0.498,0.487
		C150.241,75.212,150.392,75.051,150.392,74.725z"/>
	<path fill="#FFFFFF" d="M155.947,76.647c-0.248,0-0.468-0.098-0.666-0.295c-0.094,0.094-0.197,0.167-0.307,0.218
		c-0.112,0.052-0.239,0.078-0.386,0.078h-1.933c-0.068,0-0.137-0.009-0.206-0.026c-0.068-0.019-0.101-0.043-0.101-0.078v-1.268
		c0-0.033,0.033-0.058,0.101-0.071c0.069-0.013,0.138-0.02,0.206-0.02h1.461c0.281,0,0.422-0.153,0.422-0.461v-1.574h1.461v1.574
		c0,0.308,0.144,0.461,0.435,0.461h0.23v1.461h-0.717V76.647z M152.978,71.422c0-0.212,0.073-0.396,0.223-0.55
		c0.15-0.153,0.33-0.23,0.545-0.23c0.222,0,0.408,0.078,0.557,0.23s0.223,0.337,0.223,0.55c0,0.213-0.075,0.395-0.223,0.545
		c-0.148,0.15-0.334,0.223-0.557,0.223c-0.213,0-0.395-0.075-0.545-0.223C153.05,71.818,152.978,71.637,152.978,71.422z
		 M154.783,71.422c0-0.212,0.072-0.396,0.218-0.55c0.146-0.153,0.328-0.23,0.55-0.23c0.212,0,0.396,0.078,0.55,0.23
		c0.154,0.153,0.23,0.337,0.23,0.55c0,0.213-0.076,0.395-0.23,0.545c-0.153,0.15-0.337,0.223-0.55,0.223
		c-0.222,0-0.405-0.075-0.55-0.223C154.853,71.818,154.783,71.637,154.783,71.422z"/>
	<path fill="#FFFFFF" d="M164.681,76.647c-0.409,0-0.704-0.107-0.883-0.321c-0.146,0.146-0.31,0.259-0.494,0.339
		c-0.183,0.082-0.399,0.122-0.647,0.122c-0.57,0-0.997-0.202-1.281-0.602c-0.161,0.197-0.356,0.346-0.582,0.449
		c-0.225,0.101-0.452,0.153-0.684,0.153c-0.248,0-0.478-0.052-0.691-0.153c-0.213-0.102-0.389-0.252-0.526-0.449
		c-0.118,0.137-0.275,0.248-0.473,0.333c-0.197,0.085-0.452,0.128-0.768,0.128h-0.987c-0.069,0-0.137-0.009-0.205-0.026
		c-0.069-0.019-0.104-0.043-0.104-0.078v-1.268c0-0.033,0.035-0.058,0.104-0.071c0.068-0.013,0.135-0.02,0.205-0.02h0.935
		c0.265,0,0.396-0.141,0.396-0.422v-1.613h1.471v1.626c0,0.179,0.048,0.314,0.141,0.403c0.094,0.089,0.202,0.134,0.321,0.134
		s0.23-0.045,0.331-0.134c0.104-0.089,0.154-0.225,0.154-0.403v-1.626h1.446v1.626c0,0.179,0.052,0.314,0.154,0.403
		c0.101,0.089,0.212,0.134,0.331,0.134c0.12,0,0.226-0.045,0.321-0.134c0.092-0.089,0.141-0.225,0.141-0.403v-1.626h1.471v1.755
		c0.009,0.187,0.138,0.281,0.386,0.281h0.64v1.461h-0.625L164.681,76.647L164.681,76.647z"/>
	<path fill="#FFFFFF" d="M168.598,76.647c-0.248,0-0.47-0.098-0.667-0.295c-0.092,0.094-0.196,0.167-0.307,0.218
		c-0.111,0.052-0.239,0.078-0.385,0.078h-1.935c-0.068,0-0.135-0.009-0.205-0.026c-0.069-0.019-0.102-0.043-0.102-0.078v-1.268
		c0-0.033,0.033-0.058,0.102-0.071s0.137-0.02,0.205-0.02h1.461c0.281,0,0.422-0.153,0.422-0.461v-1.574h1.461v1.574
		c0,0.308,0.146,0.461,0.437,0.461h0.23v1.461h-0.717L168.598,76.647L168.598,76.647z M165.627,78.554
		c0-0.213,0.075-0.395,0.225-0.545c0.15-0.15,0.33-0.223,0.543-0.223c0.222,0,0.408,0.075,0.557,0.223
		c0.15,0.148,0.225,0.33,0.225,0.545s-0.076,0.396-0.225,0.55c-0.15,0.154-0.334,0.23-0.557,0.23c-0.213,0-0.393-0.076-0.543-0.23
		C165.702,78.952,165.627,78.769,165.627,78.554z M167.434,78.554c0-0.213,0.072-0.395,0.216-0.545
		c0.147-0.15,0.33-0.223,0.552-0.223c0.212,0,0.396,0.075,0.55,0.223c0.154,0.148,0.23,0.33,0.23,0.545s-0.078,0.396-0.23,0.55
		c-0.153,0.154-0.337,0.23-0.55,0.23c-0.222,0-0.405-0.076-0.552-0.23C167.506,78.952,167.434,78.769,167.434,78.554z"/>
	<path fill="#FFFFFF" d="M169.315,76.647c-0.069,0-0.138-0.009-0.206-0.026c-0.068-0.019-0.102-0.043-0.102-0.078v-1.268
		c0-0.033,0.035-0.058,0.102-0.071c0.068-0.013,0.137-0.02,0.206-0.02h1.281v1.461h-1.281V76.647z"/>
	<path fill="#FFFFFF" d="M170.596,76.647c-0.069,0-0.138-0.009-0.206-0.026c-0.068-0.019-0.102-0.043-0.102-0.078v-1.268
		c0-0.033,0.035-0.058,0.102-0.071c0.068-0.013,0.137-0.02,0.206-0.02h1.281v1.461h-1.281V76.647z"/>
	<path fill="#FFFFFF" d="M171.876,76.647c-0.069,0-0.138-0.009-0.206-0.026c-0.068-0.019-0.102-0.043-0.102-0.078v-1.268
		c0-0.033,0.035-0.058,0.102-0.071c0.068-0.013,0.137-0.02,0.206-0.02h1.281v1.461h-1.281V76.647z"/>
	<path fill="#FFFFFF" d="M173.156,76.647c-0.068,0-0.137-0.009-0.206-0.026c-0.068-0.019-0.101-0.043-0.101-0.078v-1.268
		c0-0.033,0.033-0.058,0.101-0.071c0.069-0.013,0.138-0.02,0.206-0.02h1.281v1.461h-1.281V76.647z"/>
	<path fill="#FFFFFF" d="M174.436,76.647c-0.068,0-0.137-0.009-0.206-0.026c-0.068-0.019-0.101-0.043-0.101-0.078v-1.268
		c0-0.033,0.033-0.058,0.101-0.071c0.069-0.013,0.138-0.02,0.206-0.02h1.281v1.461h-1.281V76.647z"/>
	<path fill="#FFFFFF" d="M175.717,76.647c-0.068,0-0.137-0.009-0.206-0.026c-0.068-0.019-0.101-0.043-0.101-0.078v-1.268
		c0-0.033,0.033-0.058,0.101-0.071c0.069-0.013,0.138-0.02,0.206-0.02h1.281v1.461h-1.281V76.647z"/>
	<path fill="#FFFFFF" d="M176.997,76.647c-0.068,0-0.137-0.009-0.206-0.026c-0.068-0.019-0.101-0.043-0.101-0.078v-1.268
		c0-0.033,0.033-0.058,0.101-0.071c0.069-0.013,0.138-0.02,0.206-0.02h1.281v1.461h-1.281V76.647z"/>
	<path fill="#FFFFFF" d="M178.277,76.647c-0.068,0-0.137-0.009-0.206-0.026c-0.068-0.019-0.101-0.043-0.101-0.078v-1.268
		c0-0.033,0.033-0.058,0.101-0.071c0.069-0.013,0.138-0.02,0.206-0.02h1.281v1.461h-1.281V76.647z"/>
</g>
<g display="none">
	<path display="inline" fill="#D9B451" d="M27.421,54.832c0,0.993-0.291,1.767-0.874,2.325c-0.584,0.556-1.377,0.835-2.38,0.835
		h-2.563c-0.841,0-1.533-0.323-2.075-0.97c-0.543-0.647-0.814-1.377-0.814-2.189V51.12H13.14v3.76c0,1.234,0.169,2.415,0.508,3.544
		c0.339,1.129,0.828,2.114,1.465,2.956c0.637,0.843,1.425,1.512,2.36,2.009c0.935,0.496,2,0.745,3.193,0.745h4.11
		c1.084,0,2.116-0.226,3.092-0.677s1.844-1.069,2.604-1.851c0.759-0.782,1.363-1.723,1.811-2.821
		c0.447-1.099,0.672-2.279,0.672-3.544V40.678h-5.533V54.832z"/>
	<path display="inline" fill="#D9B451" d="M92.007,56.19c0,0.512-0.096,0.903-0.285,1.173c-0.19,0.271-0.516,0.406-0.977,0.406
		H44.022h-0.935c-0.841,0-1.261-0.527-1.261-1.579V40.677H36.21v17.002c0,1.895,0.46,3.408,1.384,4.536
		c0.922,1.129,2.183,1.693,3.784,1.693h2.645h48.27c0.759,0,1.457-0.18,2.095-0.542c0.637-0.362,1.193-0.842,1.668-1.445
		c0.474-0.602,0.841-1.293,1.099-2.077c0.257-0.782,0.387-1.594,0.387-2.437v-6.229h-5.533v5.011H92.007z"/>
	<path display="inline" fill="#D9B451" d="M94.773,46.259c0.704,0,1.301-0.271,1.79-0.813c0.488-0.542,0.732-1.203,0.732-1.987
		c0-0.782-0.244-1.444-0.732-1.987c-0.488-0.542-1.086-0.812-1.79-0.812c-0.705,0-1.302,0.271-1.791,0.812
		c-0.488,0.542-0.732,1.204-0.732,1.987c0,0.782,0.244,1.445,0.732,1.987C93.471,45.988,94.067,46.259,94.773,46.259z"/>
	<path display="inline" fill="#D9B451" d="M88.995,46.259c0.678,0,1.268-0.271,1.77-0.813s0.753-1.203,0.753-1.987
		c0-0.782-0.251-1.444-0.753-1.987c-0.502-0.542-1.092-0.812-1.77-0.812c-0.705,0-1.302,0.271-1.791,0.812
		c-0.488,0.542-0.732,1.204-0.732,1.987c0,0.782,0.245,1.445,0.732,1.987C87.692,45.988,88.289,46.259,88.995,46.259z"/>
	<path display="inline" fill="#D9B451" d="M120.037,50.703c-0.38-0.586-0.882-1.045-1.506-1.377
		c-0.624-0.331-1.397-0.496-2.319-0.496h-1.261v-0.362c0-0.692,0.068-1.181,0.204-1.467c0.136-0.286,0.351-0.429,0.651-0.429h4.842
		v-6.184h-4.923c-1.167,0-2.15,0.226-2.95,0.677s-1.451,1.046-1.953,1.783c-0.502,0.738-0.869,1.573-1.099,2.505
		c-0.231,0.933-0.346,1.895-0.346,2.889v6.003h5.737c0.298,0,0.515,0.136,0.651,0.406c0.136,0.271,0.204,0.542,0.204,0.813
		c0,0.692-0.38,1.287-1.139,1.783c-0.76,0.496-1.723,0.744-2.889,0.744h-3.254c-0.841,0-1.533-0.323-2.075-0.97
		c-0.543-0.647-0.814-1.377-0.814-2.189v-3.714h-5.575v3.76c0,1.234,0.169,2.415,0.508,3.544c0.339,1.129,0.828,2.114,1.465,2.956
		c0.637,0.843,1.425,1.512,2.36,2.009c0.935,0.496,2,0.745,3.193,0.745h5.859c1.139,0,2.17-0.218,3.092-0.654
		c0.922-0.437,1.715-1.046,2.38-1.829c0.664-0.782,1.173-1.715,1.525-2.799c0.353-1.083,0.529-2.286,0.529-3.61
		c0-0.872-0.089-1.7-0.265-2.483C120.694,51.975,120.416,51.29,120.037,50.703z"/>
	<path display="inline" fill="#D9B451" d="M131.185,40.164c-1.086,0-2.049,0.218-2.889,0.654c-0.841,0.437-1.553,1.046-2.136,1.829
		c-0.584,0.782-1.031,1.715-1.342,2.799c-0.311,1.083-0.468,2.286-0.468,3.61c0,1.354,0.217,2.49,0.651,3.408
		c0.434,0.918,1.011,1.671,1.73,2.257s1.559,1.016,2.523,1.286c0.962,0.271,1.973,0.437,3.031,0.496
		c-0.462,0.933-1.072,0.933-1.831,1.234c-0.76,0.3-1.574,0.452-2.441,0.452h-3.662l0.773,6.093h3.337c1.247,0,2.4-0.27,3.458-0.812
		c1.058-0.542,1.973-1.257,2.746-2.145c0.773-0.888,1.376-1.911,1.811-3.07c0.434-1.159,0.651-1.737,0.651-2.971V49.55
		c0-3.28-0.536-5.665-1.607-7.154C134.446,40.908,133.001,40.164,131.185,40.164z M132.283,50.364h-0.407
		c-0.95,0-1.627-0.233-2.034-0.7c-0.407-0.466-0.61-1.135-0.61-2.009c0-0.571,0.108-1.067,0.326-1.489
		c0.217-0.421,0.61-0.632,1.18-0.632c0.379,0,0.732,0.174,1.058,0.519c0.326,0.347,0.488,0.911,0.488,1.693L132.283,50.364
		L132.283,50.364z"/>
	<path display="inline" fill="#D9B451" d="M159.622,50.703c-0.38-0.586-0.882-1.045-1.506-1.377
		c-0.624-0.331-1.397-0.496-2.319-0.496h-1.261v-0.362c0-0.692,0.068-1.181,0.204-1.467c0.136-0.286,0.351-0.429,0.651-0.429h4.842
		v-6.184h-4.923c-1.167,0-2.15,0.226-2.95,0.677c-0.8,0.452-1.451,1.046-1.953,1.783c-0.502,0.738-0.869,1.573-1.099,2.505
		c-0.231,0.933-0.346,1.895-0.346,2.889v6.003h5.737c0.298,0,0.515,0.136,0.651,0.406c0.136,0.271,0.204,0.542,0.204,0.813
		c0,0.692-0.38,1.287-1.139,1.783c-0.76,0.496-1.723,0.744-2.889,0.744h-3.256c-0.841,0-1.533-0.323-2.075-0.97
		c-0.543-0.647-0.814-1.377-0.814-2.189v-3.714h-5.574v3.76c0,1.234,0.169,2.415,0.508,3.544c0.339,1.129,0.828,2.114,1.465,2.956
		c0.637,0.843,1.425,1.512,2.36,2.009c0.935,0.496,2,0.745,3.193,0.745h5.859c1.139,0,2.17-0.218,3.092-0.654
		c0.922-0.437,1.715-1.046,2.38-1.829c0.664-0.782,1.172-1.715,1.525-2.799c0.353-1.083,0.529-2.286,0.529-3.61
		c0-0.872-0.089-1.7-0.265-2.483C160.28,51.975,160.002,51.29,159.622,50.703z"/>
	<path display="inline" fill="#D9B451" d="M179.111,49.771c-0.299-0.887-0.746-1.677-1.342-2.37l-6.998-7.026l-3.906,4.424
		l5.818,5.717c0.136,0.151,0.204,0.332,0.204,0.542c0,0.151-0.048,0.279-0.142,0.384c-0.096,0.106-0.21,0.158-0.346,0.158h-8.87
		l0.732,6.139h9.806c0.894,0,1.682-0.143,2.36-0.429c0.677-0.286,1.247-0.677,1.708-1.173c0.46-0.496,0.814-1.076,1.058-1.737
		c0.244-0.661,0.366-1.368,0.366-2.121C179.558,51.493,179.409,50.658,179.111,49.771z"/>
</g>
<g>
	<path fill="#2F5487" d="M28.053,54.986c0,0.883-0.287,1.571-0.862,2.067c-0.576,0.495-1.358,0.743-2.347,0.743h-2.527
		c-0.829,0-1.512-0.287-2.047-0.862c-0.535-0.575-0.803-1.224-0.803-1.946v-3.302h-5.498v3.342c0,1.097,0.167,2.147,0.501,3.15
		c0.335,1.004,0.816,1.879,1.445,2.628c0.629,0.749,1.405,1.344,2.328,1.786c0.923,0.441,1.972,0.663,3.149,0.663h4.053
		c1.07,0,2.086-0.201,3.05-0.602c0.963-0.401,1.819-0.95,2.568-1.645c0.748-0.695,1.344-1.531,1.786-2.508
		c0.441-0.977,0.663-2.026,0.663-3.15V42.403h-5.457V54.986z"/>
	<path fill="#2F5487" d="M91.749,56.193c0,0.455-0.094,0.803-0.281,1.043c-0.188,0.241-0.509,0.361-0.963,0.361H44.425h-0.923
		c-0.829,0-1.244-0.468-1.244-1.404V42.402h-5.537v15.115c0,1.685,0.454,3.03,1.365,4.032c0.909,1.004,2.153,1.505,3.732,1.505
		h2.609h47.605c0.748,0,1.437-0.16,2.067-0.482c0.629-0.321,1.177-0.748,1.645-1.285c0.467-0.535,0.829-1.15,1.084-1.846
		c0.253-0.695,0.382-1.417,0.382-2.166v-5.537h-5.457v4.455H91.749z"/>
	<path fill="#2F5487" d="M94.477,47.364c0.694,0,1.283-0.241,1.765-0.723c0.482-0.482,0.722-1.07,0.722-1.766
		c0-0.695-0.24-1.283-0.722-1.766c-0.482-0.482-1.071-0.722-1.765-0.722c-0.695,0-1.285,0.241-1.766,0.722
		c-0.482,0.482-0.722,1.071-0.722,1.766c0,0.695,0.24,1.285,0.722,1.766C93.193,47.123,93.781,47.364,94.477,47.364z"/>
	<path fill="#2F5487" d="M88.779,47.364c0.669,0,1.251-0.241,1.745-0.723c0.495-0.482,0.743-1.07,0.743-1.766
		c0-0.695-0.248-1.283-0.743-1.766c-0.495-0.482-1.077-0.722-1.745-0.722c-0.695,0-1.285,0.241-1.766,0.722
		c-0.482,0.482-0.722,1.071-0.722,1.766c0,0.695,0.241,1.285,0.722,1.766C87.494,47.123,88.082,47.364,88.779,47.364z"/>
	<path fill="#2F5487" d="M119.393,51.315c-0.375-0.521-0.87-0.929-1.485-1.224c-0.615-0.294-1.378-0.441-2.287-0.441h-1.244v-0.321
		c0-0.615,0.067-1.05,0.201-1.304c0.134-0.254,0.347-0.382,0.642-0.382h4.775v-5.498h-4.855c-1.151,0-2.12,0.201-2.909,0.602
		s-1.432,0.93-1.926,1.585c-0.495,0.656-0.857,1.399-1.084,2.227c-0.228,0.829-0.341,1.685-0.341,2.568v5.337h5.658
		c0.294,0,0.508,0.121,0.642,0.361c0.134,0.241,0.201,0.482,0.201,0.723c0,0.615-0.375,1.144-1.123,1.585
		c-0.749,0.441-1.699,0.661-2.849,0.661h-3.21c-0.829,0-1.512-0.287-2.047-0.862c-0.535-0.575-0.803-1.224-0.803-1.946v-3.302H99.85
		v3.342c0,1.097,0.167,2.147,0.501,3.15c0.335,1.004,0.816,1.879,1.445,2.628c0.629,0.749,1.405,1.344,2.328,1.786
		c0.923,0.441,1.972,0.663,3.149,0.663h5.779c1.123,0,2.14-0.194,3.05-0.581c0.909-0.388,1.691-0.93,2.347-1.626
		c0.655-0.695,1.157-1.525,1.504-2.488c0.348-0.963,0.522-2.033,0.522-3.21c0-0.776-0.088-1.512-0.261-2.207
		C120.042,52.446,119.768,51.837,119.393,51.315z"/>
	<path fill="#2F5487" d="M130.388,41.946c-1.071,0-2.021,0.194-2.849,0.581c-0.829,0.388-1.531,0.93-2.106,1.626
		c-0.576,0.695-1.017,1.525-1.324,2.488c-0.307,0.963-0.462,2.033-0.462,3.21c0,1.203,0.214,2.214,0.642,3.03
		c0.428,0.816,0.997,1.485,1.706,2.006c0.709,0.521,1.538,0.903,2.488,1.143c0.949,0.241,1.946,0.388,2.989,0.441
		c-0.455,0.829-1.057,0.829-1.806,1.097c-0.749,0.267-1.552,0.401-2.408,0.401h-3.611l0.762,5.417h3.291
		c1.23,0,2.367-0.24,3.41-0.722c1.043-0.482,1.946-1.118,2.708-1.907c0.762-0.79,1.357-1.699,1.786-2.729
		c0.428-1.03,0.642-1.544,0.642-2.641V50.29c0-2.916-0.529-5.036-1.585-6.36C133.604,42.607,132.179,41.946,130.388,41.946z
		 M131.471,51.014h-0.401c-0.937,0-1.605-0.207-2.006-0.622s-0.601-1.009-0.601-1.786c0-0.508,0.106-0.949,0.321-1.324
		c0.214-0.374,0.601-0.562,1.164-0.562c0.374,0,0.722,0.155,1.043,0.462c0.321,0.308,0.482,0.81,0.482,1.505L131.471,51.014
		L131.471,51.014z"/>
	<path fill="#2F5487" d="M158.434,51.315c-0.375-0.521-0.87-0.929-1.485-1.224c-0.615-0.294-1.378-0.441-2.287-0.441h-1.244v-0.321
		c0-0.615,0.067-1.05,0.201-1.304s0.347-0.382,0.642-0.382h4.775v-5.498h-4.855c-1.151,0-2.12,0.201-2.909,0.602
		c-0.789,0.401-1.432,0.93-1.926,1.585c-0.495,0.656-0.857,1.399-1.084,2.227c-0.228,0.829-0.341,1.685-0.341,2.568v5.337h5.658
		c0.294,0,0.508,0.121,0.642,0.361c0.134,0.241,0.201,0.482,0.201,0.723c0,0.615-0.375,1.144-1.123,1.585
		c-0.749,0.441-1.699,0.661-2.849,0.661h-3.211c-0.829,0-1.512-0.287-2.047-0.862c-0.535-0.575-0.803-1.224-0.803-1.946v-3.302
		h-5.497v3.342c0,1.097,0.167,2.147,0.501,3.15c0.335,1.004,0.816,1.879,1.445,2.628c0.629,0.749,1.405,1.344,2.328,1.786
		c0.923,0.441,1.972,0.663,3.149,0.663h5.779c1.123,0,2.14-0.194,3.049-0.581c0.909-0.388,1.691-0.93,2.347-1.626
		c0.655-0.695,1.156-1.525,1.504-2.488c0.348-0.963,0.522-2.033,0.522-3.21c0-0.776-0.088-1.512-0.261-2.207
		C159.082,52.446,158.808,51.837,158.434,51.315z"/>
	<path fill="#2F5487" d="M177.655,50.486c-0.295-0.789-0.736-1.491-1.324-2.107l-6.902-6.246l-3.852,3.933l5.738,5.082
		c0.134,0.134,0.201,0.295,0.201,0.482c0,0.134-0.047,0.248-0.14,0.341c-0.094,0.094-0.207,0.14-0.341,0.14h-8.748l0.722,5.457
		h9.671c0.882,0,1.659-0.127,2.328-0.382c0.668-0.254,1.23-0.602,1.685-1.043c0.454-0.441,0.803-0.957,1.043-1.544
		c0.24-0.588,0.361-1.217,0.361-1.886C178.095,52.018,177.949,51.275,177.655,50.486z"/>
</g>
<g>
	<g display="none">
		<path display="inline" fill="#D9B451" d="M221.732,42.693c5.14-3.146,11.648-0.716,12.619-0.278l8.124,26.275l-9.327,13.039
			l-5.936-21.301l1.911-8.759l-3.359,6.905l-10.848,22.06c-6.093,2.818-13.792-0.071-13.792-0.071l-12.935-27.867
			c0.457-7.517,5.447-11.45,5.447-11.45l25.874,0.142l-7.733,11.654l-10.496-0.01l0.005,0.011l-5.705,0.616l6.624,1.451
			l6.212,15.437L221.732,42.693z"/>
		<path display="inline" fill="none" stroke="#D9B451" stroke-width="0.6833" stroke-miterlimit="10" d="M221.732,42.693
			c5.14-3.146,11.648-0.716,12.619-0.278l8.124,26.275l-9.327,13.039l-5.936-21.301l1.911-8.759l-3.359,6.905l-10.848,22.06
			c-6.093,2.818-13.792-0.071-13.792-0.071l-12.935-27.867c0.457-7.517,5.447-11.45,5.447-11.45l25.874,0.142l-7.733,11.654
			l-10.496-0.01l0.005,0.011l-5.705,0.616l6.624,1.451l6.212,15.437L221.732,42.693z"/>
	</g>
	<g>
		<g>
			<g>
				<defs>
					<path id="SVGID_1_" d="M221.523,44.452c4.841-2.589,10.405-0.589,11.319-0.229l7.652,21.625l-7.085,12.217l-6.724-19.017
						l1.8-7.209l-3.164,5.683L213.97,77.163c-5.739,2.319-11.29-0.058-11.29-0.058l-13.317-24.421
						c0.431-6.187,5.131-9.423,5.131-9.423l22.67,0.117l-5.584,9.592l-9.319-0.008l0.004,0.009l-5.374,0.002l6.239,1.699
						l5.851,12.705L221.523,44.452z"/>
				</defs>
				<clipPath id="SVGID_2_">
					<use xlink:href="#SVGID_1_"  overflow="visible"/>
				</clipPath>
				<polygon clip-path="url(#SVGID_2_)" fill="#54B6E7" stroke="#2E67B2" stroke-width="0.6016" stroke-miterlimit="10" points="
					241.173,66.354 232.508,37.316 226.59,59.195 				"/>
			</g>
		</g>
		<g>
			<g>
				<defs>
					<path id="SVGID_3_" d="M221.523,44.452c4.841-2.589,10.405-0.589,11.319-0.229l7.652,21.625l-7.085,12.217l-6.724-19.017
						l1.8-7.209l-3.164,5.683L213.97,77.163c-5.739,2.319-11.29-0.058-11.29-0.058l-13.317-24.421
						c0.431-6.187,5.131-9.423,5.131-9.423l22.67,0.117l-5.584,9.592l-9.319-0.008l0.004,0.009l-5.374,0.002l6.239,1.699
						l5.851,12.705L221.523,44.452z"/>
				</defs>
				<clipPath id="SVGID_4_">
					<use xlink:href="#SVGID_3_"  overflow="visible"/>
				</clipPath>
				<polygon clip-path="url(#SVGID_4_)" fill="#47A2DA" stroke="#2E67B2" stroke-width="0.6016" stroke-miterlimit="10" points="
					220.612,43.147 226.547,59.03 232.465,37.15 				"/>
			</g>
		</g>
		<g>
			<g>
				<defs>
					<path id="SVGID_5_" d="M221.523,44.452c4.841-2.589,10.405-0.589,11.319-0.229l7.652,21.625l-7.085,12.217l-6.724-19.017
						l1.8-7.209l-3.164,5.683L213.97,77.163c-5.739,2.319-11.29-0.058-11.29-0.058l-13.317-24.421
						c0.431-6.187,5.131-9.423,5.131-9.423l22.67,0.117l-5.584,9.592l-9.319-0.008l0.004,0.009l-5.374,0.002l6.239,1.699
						l5.851,12.705L221.523,44.452z"/>
				</defs>
				<clipPath id="SVGID_6_">
					<use xlink:href="#SVGID_5_"  overflow="visible"/>
				</clipPath>
				<polygon clip-path="url(#SVGID_6_)" fill="#0F88CA" stroke="#2E67B2" stroke-width="0.6016" stroke-miterlimit="10" points="
					188.547,53.269 188.423,77.523 202.737,53.269 				"/>
			</g>
		</g>
		<g>
			<g>
				<defs>
					<path id="SVGID_7_" d="M221.523,44.452c4.841-2.589,10.405-0.589,11.319-0.229l7.652,21.625l-7.085,12.217l-6.724-19.017
						l1.8-7.209l-3.164,5.683L213.97,77.163c-5.739,2.319-11.29-0.058-11.29-0.058l-13.317-24.421
						c0.431-6.187,5.131-9.423,5.131-9.423l22.67,0.117l-5.584,9.592l-9.319-0.008l0.004,0.009l-5.374,0.002l6.239,1.699
						l5.851,12.705L221.523,44.452z"/>
				</defs>
				<clipPath id="SVGID_8_">
					<use xlink:href="#SVGID_7_"  overflow="visible"/>
				</clipPath>
				<polygon clip-path="url(#SVGID_8_)" fill="#47A2DA" stroke="#2E67B2" stroke-width="0.6016" stroke-miterlimit="10" points="
					202.701,77.523 202.825,53.269 188.511,77.523 				"/>
			</g>
		</g>
		<g>
			<g>
				<defs>
					<path id="SVGID_9_" d="M221.523,44.452c4.841-2.589,10.405-0.589,11.319-0.229l7.652,21.625l-7.085,12.217l-6.724-19.017
						l1.8-7.209l-3.164,5.683L213.97,77.163c-5.739,2.319-11.29-0.058-11.29-0.058l-13.317-24.421
						c0.431-6.187,5.131-9.423,5.131-9.423l22.67,0.117l-5.584,9.592l-9.319-0.008l0.004,0.009l-5.374,0.002l6.239,1.699
						l5.851,12.705L221.523,44.452z"/>
				</defs>
				<clipPath id="SVGID_10_">
					<use xlink:href="#SVGID_9_"  overflow="visible"/>
				</clipPath>
				<polygon clip-path="url(#SVGID_10_)" fill="#9DDCF9" stroke="#2E67B2" stroke-width="0.6016" stroke-miterlimit="10" points="
					202.956,78.594 202.826,50.276 217.772,78.594 				"/>
			</g>
		</g>
		<g>
			<g>
				<defs>
					<path id="SVGID_11_" d="M221.523,44.452c4.841-2.589,10.405-0.589,11.319-0.229l7.652,21.625l-7.085,12.217l-6.724-19.017
						l1.8-7.209l-3.164,5.683L213.97,77.163c-5.739,2.319-11.29-0.058-11.29-0.058l-13.317-24.421
						c0.431-6.187,5.131-9.423,5.131-9.423l22.67,0.117l-5.584,9.592l-9.319-0.008l0.004,0.009l-5.374,0.002l6.239,1.699
						l5.851,12.705L221.523,44.452z"/>
				</defs>
				<clipPath id="SVGID_12_">
					<use xlink:href="#SVGID_11_"  overflow="visible"/>
				</clipPath>
				<polygon clip-path="url(#SVGID_12_)" fill="#54B6E7" stroke="#2E67B2" stroke-width="0.6016" stroke-miterlimit="10" points="
					221.083,44.937 217.864,78.594 202.918,50.276 				"/>
			</g>
		</g>
		<g>
			<g>
				<defs>
					<path id="SVGID_13_" d="M221.523,44.452c4.841-2.589,10.405-0.589,11.319-0.229l7.652,21.625l-7.085,12.217l-6.724-19.017
						l1.8-7.209l-3.164,5.683L213.97,77.163c-5.739,2.319-11.29-0.058-11.29-0.058l-13.317-24.421
						c0.431-6.187,5.131-9.423,5.131-9.423l22.67,0.117l-5.584,9.592l-9.319-0.008l0.004,0.009l-5.374,0.002l6.239,1.699
						l5.851,12.705L221.523,44.452z"/>
				</defs>
				<clipPath id="SVGID_14_">
					<use xlink:href="#SVGID_13_"  overflow="visible"/>
				</clipPath>
				<polygon clip-path="url(#SVGID_14_)" fill="#0F88CA" stroke="#2E67B2" stroke-width="0.6016" stroke-miterlimit="10" points="
					226.003,57.727 220.998,44.335 218.915,70.475 				"/>
			</g>
		</g>
		<g>
			<g>
				<defs>
					<path id="SVGID_15_" d="M221.523,44.452c4.841-2.589,10.405-0.589,11.319-0.229l7.652,21.625l-7.085,12.217l-6.724-19.017
						l1.8-7.209l-3.164,5.683L213.97,77.163c-5.739,2.319-11.29-0.058-11.29-0.058l-13.317-24.421
						c0.431-6.187,5.131-9.423,5.131-9.423l22.67,0.117l-5.584,9.592l-9.319-0.008l0.004,0.009l-5.374,0.002l6.239,1.699
						l5.851,12.705L221.523,44.452z"/>
				</defs>
				<clipPath id="SVGID_16_">
					<use xlink:href="#SVGID_15_"  overflow="visible"/>
				</clipPath>
				<polygon clip-path="url(#SVGID_16_)" fill="#9DDCF9" stroke="#2E67B2" stroke-width="0.6016" stroke-miterlimit="10" points="
					232.973,79.523 241.739,66.798 226.521,59.319 				"/>
			</g>
		</g>
		<g>
			<g>
				<defs>
					<path id="SVGID_17_" d="M221.523,44.452c4.841-2.589,10.405-0.589,11.319-0.229l7.652,21.625l-7.085,12.217l-6.724-19.017
						l1.8-7.209l-3.164,5.683L213.97,77.163c-5.739,2.319-11.29-0.058-11.29-0.058l-13.317-24.421
						c0.431-6.187,5.131-9.423,5.131-9.423l22.67,0.117l-5.584,9.592l-9.319-0.008l0.004,0.009l-5.374,0.002l6.239,1.699
						l5.851,12.705L221.523,44.452z"/>
				</defs>
				<clipPath id="SVGID_18_">
					<use xlink:href="#SVGID_17_"  overflow="visible"/>
				</clipPath>
				<polygon clip-path="url(#SVGID_18_)" fill="#9DDCF9" stroke="#2E67B2" stroke-width="0.6016" stroke-miterlimit="10" points="
					218.01,42.743 193.132,42.615 211.882,53.269 				"/>
			</g>
		</g>
		<g>
			<g>
				<defs>
					<path id="SVGID_19_" d="M221.523,44.452c4.841-2.589,10.405-0.589,11.319-0.229l7.652,21.625l-7.085,12.217l-6.724-19.017
						l1.8-7.209l-3.164,5.683L213.97,77.163c-5.739,2.319-11.29-0.058-11.29-0.058l-13.317-24.421
						c0.431-6.187,5.131-9.423,5.131-9.423l22.67,0.117l-5.584,9.592l-9.319-0.008l0.004,0.009l-5.374,0.002l6.239,1.699
						l5.851,12.705L221.523,44.452z"/>
				</defs>
				<clipPath id="SVGID_20_">
					<use xlink:href="#SVGID_19_"  overflow="visible"/>
				</clipPath>
				<polygon clip-path="url(#SVGID_20_)" fill="#54B6E7" stroke="#2E67B2" stroke-width="0.6016" stroke-miterlimit="10" points="
					186.841,53.141 211.719,53.269 192.969,42.615 				"/>
			</g>
		</g>
	</g>
	<path fill="none" stroke="#D9B451" stroke-width="1.2032" stroke-miterlimit="10" d="M221.523,44.452
		c4.841-2.589,10.405-0.589,11.319-0.229l7.652,21.625l-7.085,12.217l-6.724-19.017l1.8-7.209l-3.164,5.683L213.97,77.163
		c-5.739,2.319-11.29-0.058-11.29-0.058l-13.317-24.421c0.431-6.187,5.131-9.423,5.131-9.423l22.67,0.117l-5.584,9.592l-9.319-0.008
		l0.004,0.009l-5.374,0.615l6.239,1.086l5.851,12.705L221.523,44.452z"/>
	<path fill="none" stroke="#2E67B2" stroke-width="1.2032" stroke-miterlimit="10" d="M221.523,44.452
		c4.841-2.589,10.405-0.589,11.319-0.229l7.652,21.625l-7.085,12.217l-6.724-19.017l1.8-7.209l-3.164,5.683L213.97,77.163
		c-5.739,2.319-11.29-0.058-11.29-0.058l-13.317-24.421c0.431-6.187,5.131-9.423,5.131-9.423l22.67,0.117l-5.584,9.592l-9.319-0.008
		l0.004,0.009l-5.374,0.615l6.239,1.086l5.851,12.705L221.523,44.452z"/>
</g>
</svg>
